<svg width="865" height="1024" viewBox="0 0 865 1024" fill="none" xmlns="http://www.w3.org/2000/svg">
<rect width="865" height="1024" fill="#1A548A"/>
<path d="M331.699 429.605C344.073 417.405 344.073 398.715 340.785 382.448C340.266 379.766 340.006 376.824 338.362 374.661C336.631 372.498 333.343 371.373 331.094 372.93C329.19 374.228 328.758 376.737 327.979 378.9C326.941 381.756 325.037 384.265 322.614 386.082C321.057 387.294 318.98 388.159 317.077 387.553C314.481 386.688 313.702 383.486 313.183 380.718C312.318 375.699 311.539 370.594 310.674 365.575C310.241 362.893 309.722 360.124 308.51 357.702C307.213 355.279 304.963 353.202 302.281 352.943C299.598 352.683 296.656 354.673 296.57 357.442C296.57 358.567 296.916 359.692 297.089 360.817C297.176 361.941 296.916 363.326 295.878 363.758C294.839 364.278 293.628 363.672 292.676 363.066C289.388 360.817 286.879 357.615 284.543 354.414C282.207 351.212 279.87 347.924 276.755 345.328C273.727 342.819 269.833 341.002 265.853 341.435C261.959 341.867 258.239 344.982 257.893 348.962C257.547 352.943 260.488 356.49 263.43 359.086C267.843 363.066 272.775 366.441 278.053 368.95C279.005 369.383 280.043 369.902 280.563 370.854C281.428 372.584 280.043 374.661 278.399 375.526C276.496 376.564 274.246 376.737 272.169 377.343C270.093 377.949 267.93 379.247 267.497 381.41C266.891 384.352 269.66 386.861 272.256 388.418C277.448 391.447 283.158 393.523 289.129 394.648C291.205 394.994 293.455 395.34 295.272 396.465C297.089 397.59 298.473 399.84 297.868 401.916C297.262 403.993 294.839 405.031 292.676 405.031C290.513 405.031 288.436 404.166 286.36 403.733C282.38 402.955 277.621 404.08 275.804 407.627C274.592 410.05 274.938 412.992 276.15 415.328C277.361 417.751 279.351 419.654 281.428 421.298C288.609 427.269 297.176 431.595 306.347 433.152C315.519 434.796 323.653 434.191 331.699 429.605Z" fill="#EBEBEB"/>
<path d="M261.181 344.55C261.181 344.55 261.267 344.636 261.527 344.723C261.786 344.896 262.046 345.069 262.478 345.328C263.257 345.847 264.469 346.54 266.026 347.578C269.054 349.568 273.381 352.597 278.313 357.009C280.736 359.173 283.331 361.682 286.1 364.364C288.782 367.046 291.724 369.988 294.666 373.19C297.608 376.391 300.55 379.852 303.319 383.659C304.703 385.563 306.001 387.553 307.386 389.63C308.683 391.706 310.068 393.783 311.452 395.86C316.817 404.253 321.749 412.473 325.556 420.26C329.363 428.047 332.132 435.402 333.863 441.718C335.593 448.035 336.372 453.313 336.718 456.947C336.891 458.764 336.977 460.235 336.977 461.187C336.977 461.619 337.064 462.052 337.064 462.312C337.064 462.571 337.064 462.658 337.064 462.658C337.064 462.658 337.064 462.571 337.064 462.312C337.064 462.052 337.064 461.706 337.064 461.187C337.064 460.235 336.977 458.764 336.891 456.947C336.631 453.313 335.853 447.948 334.209 441.632C332.478 435.229 329.796 427.874 325.989 420.087C322.181 412.3 317.25 403.993 311.885 395.6C310.5 393.523 309.203 391.447 307.818 389.37C306.52 387.293 305.136 385.303 303.751 383.4C300.983 379.593 297.954 376.132 295.012 372.93C292.07 369.729 289.215 366.787 286.446 364.104C283.677 361.422 281.082 358.913 278.659 356.75C273.727 352.423 269.314 349.395 266.286 347.491C264.728 346.54 263.517 345.761 262.652 345.328C262.219 345.069 261.959 344.896 261.7 344.809C261.354 344.636 261.181 344.55 261.181 344.55Z" fill="#E0E0E0"/>
<path d="M303.406 383.4C303.406 383.4 303.492 382.967 303.492 382.188C303.492 381.41 303.492 380.285 303.492 378.9C303.406 376.132 303.146 372.324 302.887 368.085C302.627 363.845 302.454 360.038 302.368 357.355C302.368 355.971 302.368 354.846 302.368 354.067C302.368 353.289 302.368 352.856 302.281 352.856C302.281 352.856 302.195 353.289 302.108 354.067C302.021 354.846 302.021 355.971 301.935 357.355C301.848 360.124 302.021 363.931 302.281 368.171C302.541 372.324 302.8 376.045 303.06 378.9C303.146 380.198 303.233 381.323 303.233 382.188C303.319 382.967 303.406 383.4 303.406 383.4Z" fill="#E0E0E0"/>
<path d="M267.497 382.794C267.497 382.794 268.016 382.794 268.882 382.708C269.747 382.621 271.131 382.535 272.689 382.448C275.977 382.275 280.476 382.102 285.408 382.188C290.34 382.275 294.84 382.535 298.128 382.881C299.772 383.054 301.069 383.14 301.935 383.227C302.8 383.313 303.319 383.4 303.319 383.313C303.319 383.313 302.8 383.14 301.935 383.054C301.069 382.881 299.685 382.708 298.128 382.535C294.84 382.188 290.34 381.842 285.408 381.756C280.39 381.669 275.89 381.842 272.689 382.102C271.045 382.275 269.747 382.361 268.882 382.535C267.93 382.708 267.497 382.794 267.497 382.794Z" fill="#E0E0E0"/>
<path d="M325.21 419.481C325.21 419.481 325.297 419.308 325.383 419.049C325.47 418.702 325.643 418.27 325.729 417.664C326.075 416.453 326.508 414.722 326.941 412.646C327.979 408.406 329.104 402.436 330.402 395.86C331.613 389.284 332.738 383.313 333.69 378.987C334.122 376.91 334.468 375.18 334.815 373.882C334.901 373.363 334.988 372.844 335.074 372.497C335.161 372.151 335.161 371.978 335.161 371.978C335.161 371.978 335.074 372.151 334.988 372.411C334.901 372.757 334.728 373.19 334.641 373.795C334.295 375.007 333.863 376.737 333.43 378.814C332.392 383.054 331.267 389.024 329.969 395.6C328.758 402.176 327.633 408.146 326.681 412.473C326.248 414.549 325.902 416.28 325.556 417.578C325.47 418.097 325.383 418.616 325.297 418.962C325.21 419.308 325.21 419.481 325.21 419.481Z" fill="#E0E0E0"/>
<path d="M276.409 412.473C276.409 412.473 276.583 412.559 276.929 412.559C277.275 412.646 277.794 412.732 278.313 412.819C279.611 412.992 281.428 413.251 283.505 413.597C287.917 414.203 293.974 415.155 300.723 416.28C307.472 417.318 313.529 418.27 318.029 418.789C320.278 419.049 322.009 419.308 323.307 419.395C323.912 419.481 324.345 419.481 324.778 419.481C325.124 419.481 325.297 419.481 325.297 419.481C325.297 419.481 325.124 419.395 324.778 419.395C324.431 419.308 323.912 419.222 323.393 419.135C322.095 418.962 320.278 418.703 318.202 418.356C313.789 417.751 307.645 416.799 300.983 415.674C294.234 414.636 288.177 413.684 283.678 413.165C281.428 412.905 279.697 412.646 278.4 412.559C277.794 412.473 277.361 412.473 276.929 412.473C276.583 412.473 276.409 412.473 276.409 412.473Z" fill="#E0E0E0"/>
<path d="M604.083 383.486C604.083 383.486 595.258 379.16 587.816 399.84C580.375 420.606 578.039 432.287 578.039 432.287C578.039 432.287 575.962 436.7 572.761 434.364C569.646 432.027 564.801 424.932 560.215 426.922C555.456 428.999 554.504 434.71 556.494 442.67C558.484 450.631 562.118 468.282 562.464 469.926C562.81 471.483 562.205 473.906 559.782 472.695C557.359 471.483 542.909 458.937 537.372 466.205C531.834 473.387 541.006 494.759 541.958 497.095C542.909 499.431 542.563 500.556 541.525 501.335C540.487 502.114 535.987 497.441 531.748 494.067C527.508 490.692 521.97 487.491 519.115 491.904C516.259 496.316 517.298 513.102 536.593 538.108L546.284 549.097L560.734 546.415C591.364 538.801 602.612 526.341 603.132 521.149C603.651 515.958 597.334 514.919 591.883 514.919C586.432 514.919 580.029 515.785 579.683 514.487C579.337 513.189 579.683 512.151 581.933 510.939C584.182 509.728 604.603 498.653 604.776 489.567C604.949 480.482 585.826 481.261 583.231 480.742C580.548 480.222 581.673 477.886 582.884 476.848C584.096 475.81 598.027 464.302 604.516 459.283C611.005 454.265 613.861 449.16 611.438 444.66C609.102 440.247 600.882 442.843 596.988 442.67C593.095 442.497 594.219 437.738 594.219 437.738C594.219 437.738 599.671 427.095 606.766 406.243C613.861 385.39 603.997 383.227 603.997 383.227" fill="#E0E0E0"/>
<path d="M597.421 402.003C597.421 402.003 597.421 402.176 597.335 402.436C597.248 402.782 597.075 403.214 596.902 403.733C596.556 404.858 595.95 406.589 595.258 408.665C593.873 412.992 591.71 419.135 589.115 426.836C583.836 442.151 576.395 463.263 568.089 486.539C559.782 509.814 552.341 530.927 546.976 546.155C544.294 553.77 542.131 560 540.66 564.239C539.881 566.402 539.362 568.046 538.929 569.171C538.756 569.69 538.583 570.123 538.497 570.469C538.41 570.729 538.324 570.902 538.324 570.902C538.324 570.902 538.324 570.729 538.41 570.469C538.497 570.123 538.67 569.69 538.843 569.171C539.189 568.046 539.795 566.316 540.487 564.239C541.871 559.913 544.034 553.77 546.63 546.069C551.908 530.754 559.35 509.641 567.656 486.366C575.963 463.09 583.404 442.064 588.768 426.749C591.451 419.135 593.614 412.905 595.085 408.665C595.864 406.502 596.383 404.858 596.815 403.733C596.988 403.214 597.161 402.782 597.248 402.436C597.335 402.176 597.421 402.003 597.421 402.003Z" fill="#EBEBEB"/>
<path d="M566.531 437.132C566.531 437.132 566.704 437.479 567.051 438.084C567.31 438.69 567.743 439.642 568.175 440.68C569.127 442.93 570.339 446.045 571.636 449.506C572.934 452.967 574.059 456.082 574.924 458.418C575.357 459.456 575.703 460.408 575.963 461.1C576.222 461.706 576.309 462.052 576.309 462.139C576.309 462.139 576.136 461.792 575.79 461.187C575.53 460.581 575.097 459.629 574.665 458.504C573.713 456.255 572.502 453.14 571.204 449.679C569.906 446.218 568.695 443.189 567.829 440.767C567.397 439.728 567.051 438.776 566.791 438.084C566.618 437.565 566.531 437.219 566.531 437.132Z" fill="#EBEBEB"/>
<path d="M577.693 462.312C577.607 462.225 584.01 459.37 591.884 455.995C599.757 452.621 606.16 449.938 606.247 450.111C606.333 450.198 599.93 453.053 592.057 456.428C584.183 459.716 577.78 462.398 577.693 462.312Z" fill="#EBEBEB"/>
<path d="M563.329 497.441C563.329 497.441 563.676 497.355 564.368 497.268C565.147 497.182 566.098 497.009 567.31 496.922C569.732 496.576 573.193 496.143 576.914 495.538C580.635 494.932 584.009 494.24 586.432 493.721C587.557 493.461 588.509 493.288 589.287 493.115C589.98 492.942 590.326 492.942 590.326 492.942C590.326 492.942 589.98 493.115 589.287 493.288C588.595 493.461 587.643 493.721 586.432 494.067C584.009 494.672 580.635 495.365 576.914 495.97C573.193 496.576 569.732 497.009 567.31 497.182C566.098 497.268 565.06 497.355 564.368 497.441C563.762 497.441 563.329 497.528 563.329 497.441Z" fill="#EBEBEB"/>
<path d="M548.274 476.934C548.274 476.934 548.534 477.194 548.966 477.713C549.399 478.319 550.004 479.011 550.697 479.876C552.081 481.693 553.465 484.895 556.148 486.971C558.224 489.74 560.128 492.336 561.512 494.153C562.118 495.018 562.637 495.797 563.07 496.403C563.416 496.922 563.589 497.268 563.589 497.268C563.589 497.268 563.329 497.008 562.897 496.489C562.464 495.884 561.859 495.191 561.166 494.326C559.782 492.509 557.792 490 555.715 487.231C553.639 484.462 551.735 481.866 550.351 480.049C549.745 479.184 549.226 478.405 548.793 477.8C548.447 477.281 548.274 477.021 548.274 476.934Z" fill="#EBEBEB"/>
<path d="M531.661 506.44C531.661 506.44 532.008 506.786 532.527 507.392C533.132 508.084 533.825 509.036 534.69 510.074C536.507 512.41 539.016 515.612 541.785 519.159C544.554 522.707 546.977 525.908 548.794 528.331C549.659 529.456 550.351 530.408 550.87 531.1C551.389 531.792 551.649 532.138 551.562 532.138C551.562 532.138 551.216 531.792 550.697 531.186C550.091 530.494 549.399 529.542 548.534 528.504C546.717 526.168 544.208 522.966 541.439 519.419C538.67 515.871 536.247 512.67 534.43 510.247C533.565 509.122 532.873 508.17 532.354 507.478C531.834 506.786 531.575 506.44 531.661 506.44Z" fill="#EBEBEB"/>
<path d="M551.216 531.359C551.216 531.359 551.649 531.273 552.6 531.1C553.552 530.927 554.764 530.754 556.321 530.494C559.436 529.975 563.762 529.283 568.435 528.331C573.194 527.379 577.433 526.514 580.462 525.822C581.933 525.476 583.144 525.216 584.096 524.956C584.961 524.783 585.394 524.697 585.48 524.697C585.48 524.697 585.048 524.87 584.182 525.129C583.317 525.389 582.106 525.735 580.548 526.081C577.52 526.86 573.28 527.812 568.521 528.764C563.762 529.715 559.522 530.321 556.408 530.754C554.85 530.927 553.552 531.1 552.687 531.186C551.735 531.359 551.216 531.446 551.216 531.359Z" fill="#EBEBEB"/>
<path d="M552.081 345.501H331.613V622.039H552.081V345.501Z" fill="#F5F5F5"/>
<path d="M331.613 345.501C333.171 345.501 419.091 345.415 552.081 345.328H552.255V345.501C552.255 424.5 552.255 519.678 552.255 622.039V622.298H551.995C472.391 622.298 397.2 622.298 331.527 622.298H331.353V622.125C331.527 457.726 331.613 347.232 331.613 345.501C331.613 347.232 331.7 457.726 331.786 622.039L331.613 621.866C397.286 621.866 472.477 621.866 552.081 621.866L551.822 622.125C551.822 519.765 551.822 424.586 551.822 345.588L551.995 345.761C419.091 345.588 333.171 345.501 331.613 345.501Z" fill="#263238"/>
<path d="M416.495 367.392H418.745V377.429H424.974V379.333H416.495V367.392V367.392Z" fill="black"/>
<path d="M425.667 374.834C425.667 372.151 427.744 370.161 430.512 370.161C433.368 370.161 435.358 372.065 435.358 374.834C435.358 377.516 433.368 379.506 430.512 379.506C427.744 379.506 425.667 377.516 425.667 374.834ZM433.195 374.834C433.195 373.103 432.07 371.978 430.512 371.978C428.955 371.978 427.83 373.103 427.83 374.834C427.83 376.564 428.955 377.689 430.512 377.689C432.07 377.602 433.195 376.564 433.195 374.834Z" fill="black"/>
<path d="M446.433 370.248V377.949C446.433 381.237 444.702 382.708 441.501 382.708C439.77 382.708 438.126 382.275 437.088 381.41L438.04 379.852C438.818 380.544 440.116 380.977 441.414 380.977C443.404 380.977 444.269 380.025 444.269 378.208V377.689C443.491 378.468 442.452 378.9 441.241 378.9C438.645 378.9 436.655 377.17 436.655 374.488C436.655 371.892 438.645 370.075 441.241 370.075C442.539 370.075 443.664 370.507 444.356 371.373V370.161H446.433V370.248ZM444.356 374.488C444.356 372.93 443.231 371.892 441.587 371.892C439.943 371.892 438.818 372.93 438.818 374.488C438.818 376.045 439.943 377.083 441.587 377.083C443.145 377.17 444.356 376.045 444.356 374.488Z" fill="black"/>
<path d="M448.942 367.479C448.942 366.787 449.548 366.181 450.326 366.181C451.105 366.181 451.711 366.7 451.711 367.392C451.711 368.171 451.192 368.69 450.326 368.69C449.461 368.777 448.942 368.171 448.942 367.479ZM449.202 370.248H451.365V379.333H449.202V370.248Z" fill="black"/>
<path d="M463.046 374.141V379.333H460.883V374.401C460.883 372.757 460.104 371.978 458.72 371.978C457.162 371.978 456.211 372.93 456.211 374.747V379.333H454.047V370.248H456.037V371.459C456.73 370.594 457.855 370.161 459.152 370.161C461.489 370.161 463.046 371.373 463.046 374.141Z" fill="black"/>
<path d="M478.534 361.336C479.14 362.374 479.226 363.672 478.88 364.797C478.534 365.921 477.842 366.96 477.063 367.825C475.506 369.556 473.083 370.594 470.833 371.286C470.227 368.777 471.612 366.095 472.477 364.797C473.602 362.807 477.15 359.865 478.534 361.336Z" fill="#B1D97E"/>
<path d="M470.315 375.699C470.834 374.488 472.132 373.622 473.43 373.536C474.728 373.449 476.112 373.968 477.15 374.834C477.583 375.266 478.016 375.785 478.016 376.391C478.016 376.997 477.583 377.516 477.064 377.776C476.545 378.035 475.939 378.035 475.333 378.035C473.43 377.776 471.526 377.256 470.315 375.699Z" fill="#B1D97E"/>
<path d="M465.382 378.641C465.382 378.641 465.728 378.208 466.507 377.602C466.853 377.256 467.372 376.997 467.891 376.651C468.41 376.391 469.016 376.045 469.708 375.785C471.093 375.266 472.477 375.18 473.342 375.353C473.775 375.439 474.208 375.526 474.467 375.612C474.727 375.699 474.813 375.785 474.813 375.785C474.813 375.872 474.294 375.612 473.342 375.526C472.391 375.439 471.093 375.526 469.795 376.045C469.103 376.305 468.497 376.564 467.978 376.824C467.459 377.083 466.94 377.429 466.593 377.689C465.815 378.295 465.382 378.641 465.382 378.641Z" fill="#263238"/>
<path d="M476.025 363.758C476.025 363.758 475.939 364.018 475.593 364.45C475.333 364.883 474.9 365.489 474.468 366.181C473.516 367.652 472.132 369.729 470.488 371.892C468.93 374.055 467.373 376.045 466.334 377.429C465.815 378.122 465.296 378.641 465.036 379.073C464.69 379.419 464.517 379.679 464.517 379.679C464.517 379.679 464.69 379.419 464.95 379.073C465.296 378.641 465.729 378.035 466.248 377.429C467.286 376.045 468.757 374.055 470.401 371.805C471.958 369.642 473.343 367.652 474.381 366.094C474.9 365.402 475.246 364.797 475.593 364.364C475.852 364.018 476.025 363.758 476.025 363.758Z" fill="#263238"/>
<path d="M467.459 374.661C468.411 371.978 467.891 368.863 466.247 366.614C465.815 366.008 465.209 365.489 464.517 365.662C463.825 365.835 463.479 366.614 463.392 367.392C463.046 370.334 464.69 373.449 467.286 374.834" fill="#B1D97E"/>
<path d="M465.729 368.604C465.729 368.604 465.815 368.69 465.988 368.95C466.161 369.209 466.334 369.469 466.507 369.902C466.853 370.767 467.459 371.978 467.546 373.449C467.632 374.141 467.546 374.834 467.373 375.439C467.2 376.045 466.94 376.564 466.68 376.997C466.421 377.429 466.161 377.689 465.988 377.862C465.815 378.035 465.729 378.122 465.729 378.122C465.729 378.122 466.075 377.689 466.507 376.824C466.68 376.391 466.94 375.958 467.113 375.353C467.286 374.747 467.286 374.141 467.286 373.363C467.2 371.978 466.68 370.767 466.334 369.902C465.902 369.209 465.642 368.69 465.729 368.604Z" fill="#263238"/>
<path d="M354.37 407.367V407.973H349.438V400.965H354.197V401.57H350.13V404.079H353.764V404.685H350.13V407.281H354.37V407.367Z" fill="#263238"/>
<path d="M364.58 404.945V407.973H363.888V405.031C363.888 403.906 363.369 403.387 362.417 403.387C361.378 403.387 360.686 404.079 360.686 405.291V407.973H359.994V405.031C359.994 403.906 359.475 403.387 358.523 403.387C357.485 403.387 356.793 404.079 356.793 405.291V407.973H356.1V402.695H356.793V403.647C357.139 403.041 357.831 402.609 358.696 402.609C359.561 402.609 360.254 402.955 360.6 403.733C360.946 403.041 361.725 402.609 362.676 402.609C363.715 402.695 364.58 403.474 364.58 404.945Z" fill="#263238"/>
<path d="M370.463 404.685V407.973H369.771V407.194C369.425 407.714 368.819 408.06 367.954 408.06C366.743 408.06 366.051 407.454 366.051 406.502C366.051 405.723 366.57 405.031 368.041 405.031H369.685V404.685C369.685 403.82 369.165 403.301 368.214 403.301C367.521 403.301 366.916 403.56 366.483 403.906L366.137 403.387C366.656 402.955 367.435 402.695 368.3 402.695C369.685 402.695 370.463 403.387 370.463 404.685ZM369.685 406.416V405.55H368.041C367.002 405.55 366.656 405.983 366.656 406.502C366.656 407.108 367.175 407.454 367.954 407.454C368.819 407.454 369.425 407.108 369.685 406.416Z" fill="#263238"/>
<path d="M372.194 401.051C372.194 400.792 372.454 400.532 372.713 400.532C372.973 400.532 373.232 400.792 373.232 401.051C373.232 401.311 372.973 401.57 372.713 401.57C372.454 401.57 372.194 401.397 372.194 401.051ZM372.367 402.695H373.059V407.973H372.367V402.695Z" fill="#263238"/>
<path d="M375.049 400.618H375.742V407.973H375.049V400.618Z" fill="#263238"/>
<path d="M384.221 404.685V407.973H383.529V407.194C383.183 407.714 382.577 408.06 381.712 408.06C380.501 408.06 379.809 407.454 379.809 406.502C379.809 405.723 380.328 405.031 381.799 405.031H383.443V404.685C383.443 403.82 382.924 403.301 381.972 403.301C381.28 403.301 380.674 403.56 380.241 403.906L379.895 403.387C380.414 402.955 381.193 402.695 382.058 402.695C383.529 402.695 384.221 403.387 384.221 404.685ZM383.529 406.416V405.55H381.885C380.847 405.55 380.501 405.983 380.501 406.502C380.501 407.108 381.02 407.454 381.799 407.454C382.664 407.454 383.27 407.108 383.529 406.416Z" fill="#263238"/>
<path d="M390.97 400.618V407.973H390.278V406.935C389.845 407.627 389.153 408.06 388.288 408.06C386.817 408.06 385.692 406.935 385.692 405.377C385.692 403.82 386.817 402.695 388.288 402.695C389.153 402.695 389.845 403.041 390.278 403.733V400.618H390.97V400.618ZM390.278 405.377C390.278 404.166 389.413 403.301 388.374 403.301C387.25 403.301 386.384 404.079 386.384 405.377C386.384 406.589 387.25 407.454 388.374 407.454C389.413 407.367 390.278 406.589 390.278 405.377Z" fill="#263238"/>
<path d="M397.72 400.618V407.973H397.027V406.935C396.595 407.627 395.903 408.06 395.037 408.06C393.566 408.06 392.441 406.935 392.441 405.377C392.441 403.82 393.566 402.695 395.037 402.695C395.903 402.695 396.595 403.041 397.027 403.733V400.618H397.72V400.618ZM397.027 405.377C397.027 404.166 396.162 403.301 395.124 403.301C393.999 403.301 393.134 404.079 393.134 405.377C393.134 406.589 393.999 407.454 395.124 407.454C396.162 407.367 397.027 406.589 397.027 405.377Z" fill="#263238"/>
<path d="M402.305 402.695V403.387C402.219 403.387 402.219 403.387 402.132 403.387C401.007 403.387 400.402 404.079 400.402 405.291V407.973H399.71V402.695H400.402V403.733C400.661 403.041 401.354 402.695 402.305 402.695Z" fill="#263238"/>
<path d="M408.102 405.55H403.689C403.776 406.675 404.641 407.367 405.766 407.367C406.372 407.367 406.977 407.108 407.41 406.675L407.843 407.108C407.41 407.627 406.631 407.973 405.853 407.973C404.209 407.973 403.084 406.848 403.084 405.291C403.084 403.733 404.209 402.609 405.68 402.609C407.15 402.609 408.189 403.733 408.189 405.291C408.102 405.377 408.102 405.464 408.102 405.55ZM403.776 405.031H407.497C407.41 403.993 406.631 403.301 405.593 403.301C404.555 403.301 403.862 403.993 403.776 405.031Z" fill="#263238"/>
<path d="M408.881 407.367L409.227 406.848C409.66 407.194 410.352 407.454 411.131 407.454C412.169 407.454 412.515 407.108 412.515 406.589C412.515 405.204 409.141 406.329 409.141 404.252C409.141 403.387 409.919 402.782 411.217 402.782C411.91 402.782 412.602 402.955 413.034 403.301L412.688 403.906C412.256 403.56 411.65 403.474 411.131 403.474C410.179 403.474 409.746 403.82 409.746 404.339C409.746 405.723 413.121 404.685 413.121 406.675C413.121 407.54 412.342 408.146 410.958 408.146C410.092 408.06 409.227 407.714 408.881 407.367Z" fill="#263238"/>
<path d="M413.727 407.367L414.073 406.848C414.505 407.194 415.198 407.454 415.976 407.454C417.015 407.454 417.361 407.108 417.361 406.589C417.361 405.204 413.986 406.329 413.986 404.252C413.986 403.387 414.765 402.782 416.063 402.782C416.755 402.782 417.447 402.955 417.88 403.301L417.534 403.906C417.101 403.56 416.495 403.474 415.976 403.474C415.024 403.474 414.592 403.82 414.592 404.339C414.592 405.723 417.966 404.685 417.966 406.675C417.966 407.54 417.188 408.146 415.803 408.146C414.938 408.06 414.159 407.714 413.727 407.367Z" fill="#263238"/>
<path d="M362.416 426.576H358.003C358.09 427.701 358.955 428.393 360.08 428.393C360.686 428.393 361.291 428.134 361.724 427.701L362.156 428.134C361.724 428.653 360.945 428.999 360.166 428.999C358.522 428.999 357.398 427.874 357.398 426.317C357.398 424.759 358.522 423.634 359.993 423.634C361.464 423.634 362.503 424.759 362.503 426.317C362.416 426.49 362.416 426.576 362.416 426.576ZM358.003 426.057H361.724C361.637 425.019 360.859 424.327 359.82 424.327C358.868 424.327 358.09 425.019 358.003 426.057Z" fill="#E0E0E0"/>
<path d="M367.002 428.999L365.358 426.836L363.714 428.999H362.935L365.012 426.317L363.022 423.808H363.8L365.358 425.884L366.915 423.808H367.694L365.704 426.317L367.78 428.999H367.002Z" fill="#E0E0E0"/>
<path d="M372.799 425.798V429.086H372.107V428.307C371.761 428.826 371.155 429.172 370.29 429.172C369.079 429.172 368.386 428.566 368.386 427.615C368.386 426.836 368.906 426.144 370.376 426.144H372.02V425.798C372.02 424.932 371.501 424.413 370.55 424.413C369.857 424.413 369.252 424.673 368.819 425.019L368.473 424.5C368.992 424.067 369.771 423.807 370.636 423.807C372.107 423.721 372.799 424.413 372.799 425.798ZM372.107 427.442V426.576H370.463C369.425 426.576 369.079 427.009 369.079 427.528C369.079 428.134 369.598 428.48 370.376 428.48C371.242 428.48 371.847 428.134 372.107 427.442Z" fill="#E0E0E0"/>
<path d="M383.442 425.971V428.999H382.663V426.057C382.663 424.932 382.144 424.413 381.192 424.413C380.154 424.413 379.462 425.105 379.462 426.317V429.086H378.769V426.144C378.769 425.019 378.25 424.5 377.299 424.5C376.26 424.5 375.568 425.192 375.568 426.403V429.172H374.876V423.894H375.568V424.846C375.914 424.24 376.606 423.807 377.472 423.807C378.337 423.807 379.029 424.154 379.375 424.932C379.721 424.24 380.5 423.807 381.452 423.807C382.577 423.721 383.442 424.5 383.442 425.971Z" fill="#E0E0E0"/>
<path d="M390.623 426.403C390.623 427.961 389.499 429.086 388.028 429.086C387.162 429.086 386.47 428.739 386.037 428.047V430.989H385.345V423.807H386.037V424.846C386.47 424.154 387.162 423.807 388.028 423.807C389.499 423.721 390.623 424.846 390.623 426.403ZM389.931 426.403C389.931 425.192 389.066 424.327 387.941 424.327C386.816 424.327 385.951 425.192 385.951 426.403C385.951 427.615 386.816 428.48 387.941 428.48C389.066 428.393 389.931 427.615 389.931 426.403Z" fill="#E0E0E0"/>
<path d="M392.095 421.644H392.787V428.999H392.095V421.644Z" fill="#E0E0E0"/>
<path d="M399.277 426.576H394.864C394.95 427.701 395.815 428.393 396.94 428.393C397.546 428.393 398.152 428.134 398.584 427.701L399.017 428.134C398.584 428.653 397.806 428.999 397.027 428.999C395.383 428.999 394.258 427.874 394.258 426.317C394.258 424.759 395.383 423.634 396.854 423.634C398.325 423.634 399.363 424.759 399.363 426.317C399.277 426.49 399.277 426.576 399.277 426.576ZM394.95 426.057H398.671C398.584 425.019 397.806 424.327 396.767 424.327C395.729 424.327 395.037 425.019 394.95 426.057Z" fill="#E0E0E0"/>
<path d="M409.573 426.403C409.573 428.134 408.967 429.086 407.929 429.086C407.323 429.086 406.804 428.653 406.804 427.961C406.372 428.653 405.679 429.086 404.814 429.086C403.43 429.086 402.305 428.047 402.305 426.49C402.305 425.019 403.343 423.894 404.814 423.894C405.679 423.894 406.372 424.24 406.804 424.932V423.894H407.41V427.701C407.41 428.22 407.67 428.48 408.016 428.48C408.621 428.48 409.054 427.701 409.054 426.403C409.054 424.067 407.41 422.51 404.987 422.51C402.565 422.51 400.921 424.154 400.921 426.49C400.921 428.826 402.565 430.47 404.987 430.47C405.593 430.47 406.285 430.297 406.891 430.037L407.064 430.556C406.458 430.903 405.679 430.989 404.987 430.989C402.218 430.989 400.401 429.086 400.401 426.49C400.401 423.807 402.305 421.99 405.074 421.99C407.67 421.99 409.573 423.807 409.573 426.403ZM406.718 426.49C406.718 425.278 405.939 424.5 404.814 424.5C403.689 424.5 402.911 425.278 402.911 426.49C402.911 427.701 403.689 428.48 404.814 428.48C405.939 428.48 406.718 427.701 406.718 426.49Z" fill="#E0E0E0"/>
<path d="M415.889 423.808V428.393C415.889 430.21 415.024 430.989 413.293 430.989C412.341 430.989 411.39 430.73 410.87 430.21L411.217 429.691C411.736 430.124 412.428 430.383 413.293 430.383C414.591 430.383 415.197 429.778 415.197 428.48V427.788C414.764 428.48 413.985 428.826 413.12 428.826C411.649 428.826 410.524 427.788 410.524 426.317C410.524 424.846 411.649 423.808 413.12 423.808C413.985 423.808 414.764 424.154 415.197 424.846V423.808H415.889V423.808ZM415.197 426.23C415.197 425.105 414.331 424.327 413.207 424.327C412.082 424.327 411.217 425.105 411.217 426.23C411.217 427.355 412.082 428.134 413.207 428.134C414.331 428.22 415.197 427.442 415.197 426.23Z" fill="#E0E0E0"/>
<path d="M426.532 425.971V428.999H425.84V426.057C425.84 424.932 425.321 424.413 424.369 424.413C423.33 424.413 422.638 425.105 422.638 426.317V429.086H421.946V426.144C421.946 425.019 421.427 424.5 420.475 424.5C419.437 424.5 418.745 425.192 418.745 426.403V429.172H418.052V423.894H418.745V424.846C419.091 424.24 419.783 423.807 420.648 423.807C421.513 423.807 422.206 424.154 422.552 424.932C422.898 424.24 423.677 423.807 424.628 423.807C425.667 423.721 426.532 424.5 426.532 425.971Z" fill="#E0E0E0"/>
<path d="M432.329 425.798V429.086H431.637V428.307C431.291 428.826 430.685 429.172 429.82 429.172C428.609 429.172 427.917 428.566 427.917 427.615C427.917 426.836 428.436 426.144 429.907 426.144H431.551V425.798C431.551 424.932 431.031 424.413 430.08 424.413C429.387 424.413 428.782 424.673 428.349 425.019L428.003 424.5C428.522 424.067 429.301 423.807 430.166 423.807C431.637 423.721 432.329 424.413 432.329 425.798ZM431.637 427.442V426.576H429.993C428.955 426.576 428.609 427.009 428.609 427.528C428.609 428.134 429.128 428.48 429.907 428.48C430.772 428.48 431.378 428.134 431.637 427.442Z" fill="#E0E0E0"/>
<path d="M434.146 422.163C434.146 421.904 434.406 421.644 434.666 421.644C434.925 421.644 435.185 421.904 435.185 422.163C435.185 422.423 434.925 422.683 434.666 422.683C434.32 422.596 434.146 422.423 434.146 422.163ZM434.32 423.807H435.012V429.086H434.32V423.807Z" fill="#E0E0E0"/>
<path d="M437.001 421.644H437.694V428.999H437.001V421.644Z" fill="#E0E0E0"/>
<path d="M439.165 428.48C439.165 428.134 439.424 427.961 439.684 427.961C439.943 427.961 440.203 428.22 440.203 428.48C440.203 428.826 439.943 428.999 439.684 428.999C439.424 429.086 439.165 428.826 439.165 428.48Z" fill="#E0E0E0"/>
<path d="M441.069 426.403C441.069 424.846 442.193 423.721 443.751 423.721C444.616 423.721 445.395 424.067 445.828 424.759L445.308 425.105C444.962 424.586 444.357 424.327 443.751 424.327C442.626 424.327 441.761 425.105 441.761 426.403C441.761 427.615 442.626 428.48 443.751 428.48C444.357 428.48 444.876 428.22 445.308 427.701L445.828 428.047C445.395 428.739 444.703 429.086 443.751 429.086C442.193 429.086 441.069 427.961 441.069 426.403Z" fill="#E0E0E0"/>
<path d="M446.606 426.403C446.606 424.846 447.731 423.721 449.288 423.721C450.846 423.721 451.971 424.846 451.971 426.403C451.971 427.961 450.846 429.086 449.288 429.086C447.731 429.086 446.606 427.961 446.606 426.403ZM451.192 426.403C451.192 425.192 450.327 424.327 449.288 424.327C448.164 424.327 447.298 425.105 447.298 426.403C447.298 427.615 448.164 428.48 449.288 428.48C450.327 428.393 451.192 427.615 451.192 426.403Z" fill="#E0E0E0"/>
<path d="M462.008 425.971V428.999H461.316V426.057C461.316 424.932 460.796 424.413 459.845 424.413C458.806 424.413 458.114 425.105 458.114 426.317V429.086H457.422V426.144C457.422 425.019 456.903 424.5 455.951 424.5C454.913 424.5 454.22 425.192 454.22 426.403V429.172H453.528V423.894H454.22V424.846C454.567 424.24 455.259 423.807 456.124 423.807C456.989 423.807 457.681 424.154 458.028 424.932C458.374 424.24 459.152 423.807 460.104 423.807C461.142 423.721 462.008 424.5 462.008 425.971Z" fill="#E0E0E0"/>
<path d="M533.911 437.998C533.911 437.998 534.343 438.084 534.863 437.565C535.468 437.046 535.209 435.921 535.295 434.537C535.295 431.768 535.295 427.615 535.295 422.337C535.295 421.039 535.295 419.654 535.295 418.183C535.295 417.837 535.295 417.405 535.295 417.058C535.295 416.712 535.382 416.28 535.209 415.934C535.122 415.587 534.863 415.328 534.517 415.155C534.17 414.982 533.824 415.068 533.392 415.068C530.19 415.068 526.643 415.068 522.922 415.068C515.394 415.068 506.828 415.068 497.397 415.068C459.585 415.068 407.41 415.068 349.697 415.155C349.351 415.155 348.918 415.328 348.745 415.674C348.485 416.02 348.485 416.366 348.485 416.799V419.481C348.485 421.298 348.485 423.029 348.485 424.846C348.485 428.393 348.485 431.941 348.485 435.488C348.485 435.921 348.485 436.44 348.485 436.786C348.572 437.132 348.832 437.479 349.091 437.652C349.264 437.738 349.437 437.738 349.61 437.738H350.302H351.6C353.331 437.738 355.061 437.738 356.792 437.738C360.253 437.738 363.714 437.738 367.089 437.738C380.673 437.738 393.825 437.738 406.285 437.738C431.291 437.738 453.788 437.738 472.65 437.825C491.513 437.825 506.828 437.911 517.384 437.911C522.662 437.911 526.729 437.911 529.585 437.911C530.969 437.911 532.007 437.911 532.786 437.911C533.565 437.998 533.911 437.998 533.911 437.998C533.911 437.998 533.565 437.998 532.873 437.998C532.18 437.998 531.055 437.998 529.671 437.998C526.902 437.998 522.749 437.998 517.471 437.998C506.915 437.998 491.6 437.998 472.737 438.084C453.874 438.084 431.291 438.084 406.371 438.171C393.912 438.171 380.76 438.171 367.175 438.171C363.801 438.171 360.34 438.171 356.878 438.171C355.148 438.171 353.417 438.171 351.687 438.171H350.389H349.697C349.437 438.171 349.178 438.084 349.005 437.998C348.572 437.738 348.226 437.306 348.139 436.786C348.053 436.267 348.139 435.921 348.139 435.402C348.139 431.854 348.139 428.393 348.139 424.759C348.139 422.942 348.139 421.212 348.139 419.395V416.712C348.139 416.453 348.139 416.28 348.139 416.02C348.139 415.761 348.312 415.501 348.399 415.328C348.658 414.895 349.264 414.636 349.783 414.636C407.41 414.636 459.671 414.722 497.483 414.722C506.915 414.722 515.481 414.722 523.009 414.722C526.729 414.722 530.277 414.722 533.478 414.722C533.824 414.722 534.344 414.636 534.69 414.895C535.036 415.068 535.382 415.414 535.468 415.847C535.555 416.28 535.555 416.626 535.555 416.972C535.555 417.318 535.555 417.751 535.555 418.097C535.555 419.568 535.555 420.952 535.555 422.25C535.555 427.528 535.555 431.595 535.555 434.45C535.555 435.142 535.555 435.748 535.555 436.267C535.555 436.786 535.382 437.219 535.122 437.479C534.344 438.084 533.911 437.998 533.911 437.998Z" fill="#E0E0E0"/>
<path d="M354.888 455.649C354.888 457.12 353.85 458.072 352.033 458.072H350.13V460.235H349.351V453.226H351.947C353.764 453.313 354.888 454.178 354.888 455.649ZM354.11 455.649C354.11 454.524 353.331 453.918 351.947 453.918H350.13V457.38H351.947C353.418 457.38 354.11 456.774 354.11 455.649Z" fill="#263238"/>
<path d="M360.253 457.033V460.321H359.561V459.543C359.215 460.062 358.609 460.408 357.744 460.408C356.532 460.408 355.84 459.802 355.84 458.85C355.84 458.072 356.359 457.38 357.83 457.38H359.474V457.033C359.474 456.168 358.955 455.649 358.003 455.649C357.311 455.649 356.705 455.909 356.273 456.255L355.927 455.736C356.446 455.303 357.225 455.043 358.09 455.043C359.474 454.957 360.253 455.649 360.253 457.033ZM359.474 458.677V457.812H357.83C356.792 457.812 356.446 458.245 356.446 458.764C356.446 459.37 356.965 459.716 357.744 459.716C358.609 459.716 359.215 459.37 359.474 458.677Z" fill="#263238"/>
<path d="M361.378 459.629L361.724 459.11C362.156 459.456 362.849 459.716 363.627 459.716C364.666 459.716 365.012 459.37 365.012 458.85C365.012 457.466 361.637 458.591 361.637 456.514C361.637 455.649 362.416 455.043 363.714 455.043C364.406 455.043 365.098 455.216 365.531 455.562L365.185 456.168C364.752 455.822 364.147 455.735 363.627 455.735C362.676 455.735 362.243 456.082 362.243 456.601C362.243 457.985 365.617 456.947 365.617 458.937C365.617 459.802 364.839 460.408 363.454 460.408C362.676 460.321 361.81 459.975 361.378 459.629Z" fill="#263238"/>
<path d="M366.31 459.629L366.656 459.11C367.088 459.456 367.781 459.716 368.559 459.716C369.598 459.716 369.944 459.37 369.944 458.85C369.944 457.466 366.569 458.591 366.569 456.514C366.569 455.649 367.348 455.043 368.646 455.043C369.338 455.043 370.03 455.216 370.463 455.562L370.117 456.168C369.684 455.822 369.079 455.735 368.559 455.735C367.608 455.735 367.175 456.082 367.175 456.601C367.175 457.985 370.55 456.947 370.55 458.937C370.55 459.802 369.771 460.408 368.386 460.408C367.521 460.321 366.742 459.975 366.31 459.629Z" fill="#263238"/>
<path d="M379.462 455.043L377.472 460.321H376.779L375.135 455.995L373.491 460.321H372.799L370.809 455.043H371.501L373.145 459.456L374.789 455.043H375.395L377.039 459.456L378.683 455.043H379.462Z" fill="#263238"/>
<path d="M379.808 457.639C379.808 456.082 380.933 454.957 382.49 454.957C384.048 454.957 385.173 456.082 385.173 457.639C385.173 459.197 384.048 460.321 382.49 460.321C380.933 460.321 379.808 459.197 379.808 457.639ZM384.48 457.639C384.48 456.428 383.615 455.562 382.577 455.562C381.452 455.562 380.587 456.341 380.587 457.639C380.587 458.85 381.452 459.716 382.577 459.716C383.615 459.629 384.48 458.85 384.48 457.639Z" fill="#263238"/>
<path d="M389.239 454.957V455.649C389.153 455.649 389.153 455.649 389.066 455.649C387.941 455.649 387.336 456.341 387.336 457.553V460.235H386.643V454.957H387.336V455.995C387.595 455.303 388.287 454.957 389.239 454.957Z" fill="#263238"/>
<path d="M395.209 452.88V460.235H394.517V459.197C394.085 459.889 393.392 460.321 392.527 460.321C391.056 460.321 389.931 459.197 389.931 457.639C389.931 456.082 391.056 454.957 392.527 454.957C393.392 454.957 394.085 455.303 394.517 455.995V452.88H395.209V452.88ZM394.517 457.639C394.517 456.428 393.652 455.562 392.614 455.562C391.489 455.562 390.624 456.341 390.624 457.639C390.624 458.85 391.489 459.716 392.614 459.716C393.739 459.629 394.517 458.85 394.517 457.639Z" fill="#263238"/>
<path d="M362.935 481.347V481.953H358.003V474.944H362.762V475.55H358.695V478.059H362.329V478.665H358.695V481.261H362.935V481.347Z" fill="#E0E0E0"/>
<path d="M369.251 478.925V481.953H368.559V479.011C368.559 477.886 367.953 477.367 367.002 477.367C365.877 477.367 365.185 478.059 365.185 479.271V482.039H364.492V476.761H365.185V477.713C365.531 477.107 366.309 476.675 367.175 476.675C368.386 476.675 369.251 477.367 369.251 478.925Z" fill="#E0E0E0"/>
<path d="M373.924 481.607C373.664 481.866 373.232 481.953 372.799 481.953C371.847 481.953 371.241 481.434 371.241 480.395V477.194H370.29V476.588H371.241V475.463H371.934V476.588H373.491V477.194H371.934V480.309C371.934 480.915 372.28 481.261 372.799 481.261C373.059 481.261 373.405 481.174 373.578 481.001L373.924 481.607Z" fill="#E0E0E0"/>
<path d="M379.635 479.53H375.222C375.309 480.655 376.174 481.347 377.299 481.347C377.904 481.347 378.51 481.088 378.943 480.655L379.375 481.088C378.943 481.607 378.164 481.953 377.385 481.953C375.741 481.953 374.616 480.828 374.616 479.271C374.616 477.713 375.741 476.588 377.212 476.588C378.683 476.588 379.721 477.713 379.721 479.271C379.635 479.357 379.635 479.444 379.635 479.53ZM375.222 479.011H378.943C378.856 477.973 378.077 477.281 377.039 477.281C376.087 477.281 375.309 477.973 375.222 479.011Z" fill="#E0E0E0"/>
<path d="M383.702 476.675V477.367C383.615 477.367 383.615 477.367 383.529 477.367C382.404 477.367 381.798 478.059 381.798 479.271V481.953H381.106V476.675H381.798V477.713C382.058 477.021 382.75 476.675 383.702 476.675Z" fill="#E0E0E0"/>
<path d="M392.959 479.357C392.959 480.915 391.835 482.04 390.364 482.04C389.498 482.04 388.806 481.693 388.373 481.001V483.943H387.681V476.761H388.373V477.8C388.806 477.108 389.498 476.761 390.364 476.761C391.835 476.675 392.959 477.713 392.959 479.357ZM392.267 479.357C392.267 478.146 391.402 477.281 390.277 477.281C389.152 477.281 388.287 478.146 388.287 479.357C388.287 480.569 389.152 481.434 390.277 481.434C391.402 481.347 392.267 480.569 392.267 479.357Z" fill="#E0E0E0"/>
<path d="M398.324 478.665V481.953H397.632V481.174C397.286 481.693 396.68 482.039 395.815 482.039C394.604 482.039 393.911 481.434 393.911 480.482C393.911 479.703 394.43 479.011 395.901 479.011H397.545V478.665C397.545 477.8 397.026 477.281 396.074 477.281C395.382 477.281 394.777 477.54 394.344 477.886L393.998 477.367C394.517 476.934 395.296 476.675 396.161 476.675C397.545 476.675 398.324 477.367 398.324 478.665ZM397.632 480.395V479.53H395.988C394.95 479.53 394.604 479.963 394.604 480.482C394.604 481.088 395.123 481.434 395.901 481.434C396.767 481.434 397.372 481.088 397.632 480.395Z" fill="#E0E0E0"/>
<path d="M399.535 481.347L399.881 480.828C400.314 481.174 401.006 481.434 401.785 481.434C402.823 481.434 403.169 481.088 403.169 480.569C403.169 479.184 399.795 480.309 399.795 478.232C399.795 477.367 400.574 476.761 401.872 476.761C402.564 476.761 403.256 476.934 403.689 477.281L403.343 477.886C402.91 477.54 402.304 477.454 401.785 477.454C400.833 477.454 400.401 477.8 400.401 478.319C400.401 479.703 403.775 478.665 403.775 480.655C403.775 481.52 402.996 482.126 401.612 482.126C400.747 481.953 399.968 481.693 399.535 481.347Z" fill="#E0E0E0"/>
<path d="M404.381 481.347L404.727 480.828C405.16 481.174 405.852 481.434 406.631 481.434C407.669 481.434 408.015 481.088 408.015 480.569C408.015 479.184 404.64 480.309 404.64 478.232C404.64 477.367 405.419 476.761 406.717 476.761C407.409 476.761 408.101 476.934 408.534 477.281L408.188 477.886C407.755 477.54 407.15 477.454 406.631 477.454C405.679 477.454 405.246 477.8 405.246 478.319C405.246 479.703 408.621 478.665 408.621 480.655C408.621 481.52 407.842 482.126 406.457 482.126C405.679 481.953 404.813 481.693 404.381 481.347Z" fill="#E0E0E0"/>
<path d="M417.533 476.675L415.543 481.953H414.851L413.207 477.627L411.563 481.953H410.87L408.88 476.675H409.572L411.216 481.088L412.86 476.675H413.466L415.11 481.088L416.754 476.675H417.533Z" fill="#E0E0E0"/>
<path d="M417.966 479.357C417.966 477.8 419.091 476.675 420.648 476.675C422.205 476.675 423.33 477.8 423.33 479.357C423.33 480.915 422.205 482.039 420.648 482.039C419.091 481.953 417.966 480.915 417.966 479.357ZM422.552 479.357C422.552 478.146 421.686 477.281 420.648 477.281C419.523 477.281 418.658 478.059 418.658 479.357C418.658 480.569 419.523 481.434 420.648 481.434C421.773 481.347 422.552 480.569 422.552 479.357Z" fill="#E0E0E0"/>
<path d="M427.397 476.675V477.367C427.31 477.367 427.31 477.367 427.224 477.367C426.099 477.367 425.493 478.059 425.493 479.271V481.953H424.801V476.675H425.493V477.713C425.753 477.021 426.359 476.675 427.397 476.675Z" fill="#E0E0E0"/>
<path d="M433.367 474.598V481.953H432.675V480.915C432.242 481.607 431.55 482.039 430.685 482.039C429.214 482.039 428.089 480.915 428.089 479.357C428.089 477.8 429.214 476.675 430.685 476.675C431.55 476.675 432.242 477.021 432.675 477.713V474.598H433.367ZM432.675 479.357C432.675 478.146 431.81 477.281 430.771 477.281C429.647 477.281 428.781 478.059 428.781 479.357C428.781 480.569 429.647 481.434 430.771 481.434C431.81 481.347 432.675 480.569 432.675 479.357Z" fill="#E0E0E0"/>
<path d="M491.686 475.637V478.405H495.32V479.011H491.686V481.953H490.907V474.944H495.666V475.55H491.686V475.637Z" fill="#7B7B7B"/>
<path d="M496.444 479.357C496.444 477.8 497.569 476.675 499.127 476.675C500.684 476.675 501.809 477.8 501.809 479.357C501.809 480.915 500.684 482.039 499.127 482.039C497.569 481.953 496.444 480.915 496.444 479.357ZM501.03 479.357C501.03 478.146 500.165 477.281 499.127 477.281C498.002 477.281 497.137 478.059 497.137 479.357C497.137 480.569 498.002 481.434 499.127 481.434C500.165 481.347 501.03 480.569 501.03 479.357Z" fill="#7B7B7B"/>
<path d="M505.79 476.675V477.367C505.703 477.367 505.703 477.367 505.616 477.367C504.492 477.367 503.886 478.059 503.886 479.271V481.953H503.194V476.675H503.886V477.713C504.146 477.021 504.838 476.675 505.79 476.675Z" fill="#7B7B7B"/>
<path d="M511.846 476.675V481.261C511.846 483.078 510.981 483.857 509.251 483.857C508.299 483.857 507.347 483.597 506.828 483.078L507.174 482.559C507.693 482.991 508.385 483.251 509.251 483.251C510.548 483.251 511.154 482.645 511.154 481.347V480.655C510.721 481.347 509.943 481.693 509.077 481.693C507.607 481.693 506.482 480.655 506.482 479.184C506.482 477.713 507.607 476.675 509.077 476.675C509.943 476.675 510.721 477.021 511.154 477.713V476.675H511.846ZM511.241 479.184C511.241 478.059 510.375 477.281 509.251 477.281C508.126 477.281 507.26 478.059 507.26 479.184C507.26 480.309 508.126 481.088 509.251 481.088C510.375 481.088 511.241 480.309 511.241 479.184Z" fill="#7B7B7B"/>
<path d="M513.317 479.357C513.317 477.8 514.442 476.675 515.999 476.675C517.557 476.675 518.682 477.8 518.682 479.357C518.682 480.915 517.557 482.039 515.999 482.039C514.442 481.953 513.317 480.915 513.317 479.357ZM517.99 479.357C517.99 478.146 517.124 477.281 516.086 477.281C514.961 477.281 514.096 478.059 514.096 479.357C514.096 480.569 514.961 481.434 516.086 481.434C517.124 481.347 517.99 480.569 517.99 479.357Z" fill="#7B7B7B"/>
<path d="M522.835 481.607C522.576 481.866 522.143 481.953 521.71 481.953C520.759 481.953 520.153 481.434 520.153 480.395V477.194H519.201V476.588H520.153V475.463H520.845V476.588H522.403V477.194H520.845V480.309C520.845 480.915 521.191 481.261 521.71 481.261C521.97 481.261 522.316 481.174 522.489 481.001L522.835 481.607Z" fill="#7B7B7B"/>
<path d="M527.161 476.761C527.161 476.069 526.556 475.55 525.517 475.55C524.652 475.55 524.046 475.81 523.614 476.329L523.095 475.896C523.614 475.204 524.479 474.858 525.604 474.858C526.988 474.858 527.854 475.55 527.854 476.588C527.854 478.319 526.037 478.405 526.037 479.79H525.258C525.344 478.232 527.161 478.059 527.161 476.761ZM525.171 481.52C525.171 481.261 525.431 481.001 525.69 481.001C525.95 481.001 526.21 481.261 526.21 481.52C526.21 481.78 525.95 482.039 525.69 482.039C525.431 481.953 525.171 481.78 525.171 481.52Z" fill="#7B7B7B"/>
<path d="M533.911 490.865C533.911 490.865 534.343 490.952 534.863 490.432C535.468 489.913 535.209 488.789 535.295 487.404C535.295 484.635 535.295 480.482 535.295 475.204C535.295 473.906 535.295 472.522 535.295 471.051C535.295 470.705 535.295 470.272 535.295 469.926C535.295 469.58 535.382 469.147 535.209 468.801C535.122 468.455 534.863 468.195 534.517 468.022C534.17 467.849 533.824 467.936 533.392 467.936C530.19 467.936 526.643 467.936 522.922 467.936C515.394 467.936 506.828 467.936 497.397 467.936C459.585 467.936 407.41 467.936 349.697 468.022C349.351 468.022 348.918 468.195 348.745 468.541C348.485 468.887 348.485 469.234 348.485 469.666V472.349C348.485 474.166 348.485 475.896 348.485 477.713C348.485 481.261 348.485 484.808 348.485 488.356C348.485 488.788 348.485 489.308 348.485 489.654C348.572 490 348.832 490.346 349.091 490.519C349.264 490.606 349.437 490.606 349.61 490.606H350.302H351.6C353.331 490.606 355.061 490.606 356.792 490.606C360.253 490.606 363.714 490.606 367.089 490.606C380.673 490.606 393.825 490.606 406.285 490.606C431.291 490.606 453.788 490.606 472.65 490.692C491.513 490.692 506.828 490.779 517.384 490.779C522.662 490.779 526.729 490.779 529.585 490.779C530.969 490.779 532.007 490.779 532.786 490.779C533.565 490.865 533.911 490.865 533.911 490.865C533.911 490.865 533.565 490.865 532.873 490.865C532.18 490.865 531.055 490.865 529.671 490.865C526.902 490.865 522.749 490.865 517.471 490.865C506.915 490.865 491.6 490.865 472.737 490.952C453.874 490.952 431.291 490.952 406.371 491.038C393.912 491.038 380.76 491.038 367.175 491.038C363.801 491.038 360.34 491.038 356.878 491.038C355.148 491.038 353.417 491.038 351.687 491.038H350.389H349.697C349.437 491.038 349.178 490.952 349.005 490.865C348.572 490.606 348.226 490.173 348.139 489.654C348.053 489.135 348.139 488.789 348.139 488.269C348.139 484.722 348.139 481.261 348.139 477.627C348.139 475.81 348.139 474.079 348.139 472.262V469.58C348.139 469.32 348.139 469.147 348.139 468.887C348.139 468.628 348.312 468.368 348.399 468.195C348.658 467.763 349.264 467.503 349.783 467.503C407.41 467.503 459.671 467.59 497.483 467.59C506.915 467.59 515.481 467.59 523.009 467.59C526.729 467.59 530.277 467.59 533.478 467.59C533.824 467.59 534.344 467.503 534.69 467.763C535.036 467.936 535.382 468.282 535.468 468.714C535.555 469.147 535.555 469.493 535.555 469.839C535.555 470.185 535.555 470.618 535.555 470.964C535.555 472.435 535.555 473.819 535.555 475.117C535.555 480.395 535.555 484.462 535.555 487.318C535.555 488.01 535.555 488.615 535.555 489.135C535.555 489.654 535.382 490.086 535.122 490.346C534.344 491.038 533.911 490.865 533.911 490.865Z" fill="#E0E0E0"/>
<path d="M423.071 574.363L423.33 573.757C423.849 574.276 424.715 574.622 425.666 574.622C426.964 574.622 427.57 574.103 427.57 573.411C427.57 571.507 423.244 572.632 423.244 570.123C423.244 569.085 424.022 568.219 425.84 568.219C426.618 568.219 427.484 568.479 428.003 568.825L427.743 569.431C427.137 569.085 426.445 568.825 425.84 568.825C424.542 568.825 424.022 569.431 424.022 570.123C424.022 572.027 428.349 570.902 428.349 573.411C428.349 574.449 427.57 575.315 425.753 575.315C424.628 575.228 423.59 574.882 423.071 574.363Z" fill="#263238"/>
<path d="M429.56 568.306C429.56 568.046 429.82 567.787 430.079 567.787C430.339 567.787 430.598 568.046 430.598 568.306C430.598 568.566 430.339 568.825 430.079 568.825C429.82 568.825 429.56 568.566 429.56 568.306ZM429.733 569.95H430.425V575.228H429.733V569.95Z" fill="#263238"/>
<path d="M437.174 572.113V575.142H436.482V572.2C436.482 571.075 435.876 570.556 434.925 570.556C433.8 570.556 433.108 571.248 433.108 572.459V575.228H432.415V569.95H433.108V570.902C433.454 570.296 434.232 569.863 435.098 569.863C436.309 569.863 437.174 570.642 437.174 572.113Z" fill="#263238"/>
<path d="M444.01 569.95V574.536C444.01 576.353 443.145 577.132 441.414 577.132C440.463 577.132 439.511 576.872 438.992 576.353L439.338 575.834C439.857 576.266 440.636 576.526 441.414 576.526C442.712 576.526 443.318 575.92 443.318 574.622V573.93C442.885 574.622 442.107 574.969 441.241 574.969C439.77 574.969 438.646 573.93 438.646 572.459C438.646 570.988 439.77 569.95 441.241 569.95C442.107 569.95 442.885 570.296 443.318 570.988V569.95H444.01V569.95ZM443.318 572.459C443.318 571.334 442.453 570.556 441.328 570.556C440.203 570.556 439.338 571.334 439.338 572.459C439.338 573.584 440.203 574.363 441.328 574.363C442.453 574.363 443.318 573.584 443.318 572.459Z" fill="#263238"/>
<path d="M453.268 569.95V575.228H452.576V574.276C452.23 574.882 451.537 575.315 450.672 575.315C449.374 575.315 448.422 574.536 448.422 573.065V570.037H449.115V572.978C449.115 574.103 449.72 574.622 450.672 574.622C451.797 574.622 452.489 573.93 452.489 572.719V569.95H453.268V569.95Z" fill="#263238"/>
<path d="M460.537 572.546C460.537 574.103 459.412 575.228 457.941 575.228C457.075 575.228 456.383 574.882 455.951 574.19V577.132H455.258V569.95H455.951V570.988C456.383 570.296 457.075 569.95 457.941 569.95C459.498 569.863 460.537 570.988 460.537 572.546ZM459.844 572.546C459.844 571.334 458.979 570.469 457.854 570.469C456.729 570.469 455.864 571.334 455.864 572.546C455.864 573.757 456.729 574.622 457.854 574.622C459.066 574.622 459.844 573.757 459.844 572.546Z" fill="#263238"/>
<path d="M533.911 583.794C533.911 583.794 534.344 583.881 534.863 583.362C535.468 582.842 535.209 581.718 535.295 580.333C535.295 577.564 535.295 573.411 535.295 568.133C535.295 566.835 535.295 565.451 535.295 563.98C535.295 563.634 535.295 563.201 535.295 562.855C535.295 562.509 535.382 562.076 535.209 561.73C535.122 561.384 534.863 561.124 534.517 560.951C534.171 560.778 533.824 560.865 533.392 560.865C530.19 560.865 526.643 560.865 522.922 560.865C515.394 560.865 506.828 560.865 497.397 560.865C459.585 560.865 407.41 560.865 349.697 560.951C349.351 560.951 348.918 561.124 348.745 561.47C348.486 561.817 348.486 562.163 348.486 562.595V565.278C348.486 567.095 348.486 568.825 348.486 570.642C348.486 574.19 348.486 577.737 348.486 581.285C348.486 581.718 348.486 582.237 348.486 582.583C348.572 582.929 348.832 583.275 349.091 583.448C349.264 583.535 349.437 583.535 349.61 583.535H350.303H351.6C353.331 583.535 355.061 583.535 356.792 583.535C360.253 583.535 363.714 583.535 367.089 583.535C380.673 583.535 393.825 583.535 406.285 583.535C431.291 583.535 453.788 583.535 472.65 583.621C491.513 583.621 506.828 583.708 517.384 583.708C522.663 583.708 526.729 583.708 529.585 583.708C530.969 583.708 532.007 583.708 532.786 583.708C533.565 583.708 533.911 583.794 533.911 583.794C533.911 583.794 533.565 583.794 532.873 583.794C532.18 583.794 531.056 583.794 529.671 583.794C526.902 583.794 522.749 583.794 517.471 583.794C506.915 583.794 491.6 583.794 472.737 583.881C453.874 583.881 431.291 583.881 406.371 583.967C393.912 583.967 380.76 583.967 367.175 583.967C363.801 583.967 360.34 583.967 356.879 583.967C355.148 583.967 353.417 583.967 351.687 583.967H350.389H349.697C349.437 583.967 349.178 583.881 349.005 583.794C348.572 583.535 348.226 583.102 348.139 582.583C348.053 582.064 348.139 581.718 348.139 581.198C348.139 577.651 348.139 574.19 348.139 570.556C348.139 568.739 348.139 567.008 348.139 565.191V562.509C348.139 562.249 348.139 562.076 348.139 561.817C348.139 561.557 348.312 561.297 348.399 561.124C348.659 560.692 349.264 560.432 349.783 560.432C407.41 560.432 459.672 560.519 497.483 560.519C506.915 560.519 515.481 560.519 523.009 560.519C526.729 560.519 530.277 560.519 533.478 560.519C533.824 560.519 534.344 560.432 534.69 560.692C535.036 560.865 535.382 561.211 535.468 561.644C535.555 562.076 535.555 562.422 535.555 562.768C535.555 563.114 535.555 563.547 535.555 563.893C535.555 565.364 535.555 566.749 535.555 568.046C535.555 573.325 535.555 577.391 535.555 580.247C535.555 580.939 535.555 581.545 535.555 582.064C535.555 582.583 535.382 583.015 535.122 583.275C534.344 583.881 533.911 583.708 533.911 583.794Z" fill="#263238"/>
<path d="M525.778 540.877H357.831C352.553 540.877 348.226 536.551 348.226 531.273V527.379C348.226 522.101 352.553 517.775 357.831 517.775H525.778C531.056 517.775 535.382 522.101 535.382 527.379V531.273C535.382 536.637 531.056 540.877 525.778 540.877Z" fill="#1A548A"/>
<path d="M427.484 525.303H428.263V531.619H432.157V532.225H427.484V525.303Z" fill="white"/>
<path d="M432.589 529.629C432.589 528.071 433.714 526.947 435.271 526.947C436.829 526.947 437.954 528.071 437.954 529.629C437.954 531.186 436.829 532.311 435.271 532.311C433.8 532.311 432.589 531.186 432.589 529.629ZM437.262 529.629C437.262 528.417 436.396 527.552 435.358 527.552C434.233 527.552 433.368 528.331 433.368 529.629C433.368 530.84 434.233 531.705 435.358 531.705C436.396 531.705 437.262 530.84 437.262 529.629Z" fill="white"/>
<path d="M444.27 527.033V531.619C444.27 533.436 443.405 534.215 441.675 534.215C440.723 534.215 439.771 533.955 439.252 533.436L439.598 532.917C440.117 533.349 440.809 533.609 441.675 533.609C442.973 533.609 443.578 533.003 443.578 531.706V531.013C443.146 531.706 442.367 532.052 441.502 532.052C440.031 532.052 438.906 531.013 438.906 529.542C438.906 528.071 440.031 527.033 441.502 527.033C442.367 527.033 443.146 527.379 443.578 528.071V527.033H444.27ZM443.578 529.542C443.578 528.418 442.713 527.639 441.588 527.639C440.463 527.639 439.598 528.418 439.598 529.542C439.598 530.667 440.463 531.446 441.588 531.446C442.713 531.446 443.578 530.667 443.578 529.542Z" fill="white"/>
<path d="M448.683 525.389C448.683 525.129 448.943 524.87 449.202 524.87C449.462 524.87 449.722 525.129 449.722 525.389C449.722 525.649 449.462 525.908 449.202 525.908C448.856 525.908 448.683 525.649 448.683 525.389ZM448.856 527.033H449.549V532.311H448.856V527.033Z" fill="white"/>
<path d="M456.297 529.196V532.225H455.605V529.283C455.605 528.158 454.999 527.639 454.047 527.639C452.922 527.639 452.23 528.331 452.23 529.542V532.311H451.538V527.033H452.23V527.985C452.576 527.379 453.355 526.947 454.22 526.947C455.432 526.947 456.297 527.725 456.297 529.196Z" fill="white"/>
<path d="M250.799 670.234L249.674 676.637L250.626 676.81C254.865 677.675 272.171 681.05 275.112 680.617C278.4 680.184 265.768 675.166 265.768 675.166L266.2 672.484L250.799 670.234Z" fill="#7ECED9"/>
<g opacity="0.5">
<g opacity="0.5">
<g opacity="0.5">
<path opacity="0.5" d="M255.297 677.329C255.297 676.031 254.778 674.733 253.827 673.695C252.961 672.743 251.75 672.137 250.365 672.051L249.673 676.377L255.297 677.329Z" fill="white"/>
</g>
</g>
</g>
<g opacity="0.5">
<path opacity="0.5" d="M271.91 677.848C271.91 677.848 276.323 679.925 275.631 680.53C274.939 681.223 257.374 678.454 249.673 676.55L249.76 676.204L270.266 679.579C270.266 679.579 271.045 677.762 271.91 677.848Z" fill="white"/>
</g>
<path d="M249.5 676.204C249.5 676.204 249.586 676.204 249.76 676.291C250.019 676.377 250.192 676.377 250.538 676.464C251.317 676.637 252.182 676.81 253.307 676.983C255.643 677.415 258.931 678.021 262.565 678.54C266.199 679.059 269.487 679.579 271.824 679.838C272.949 679.925 273.9 680.098 274.679 680.184C274.939 680.184 275.198 680.271 275.458 680.271C275.631 680.271 275.717 680.271 275.717 680.271C275.717 680.271 275.631 680.271 275.458 680.184C275.198 680.184 274.939 680.098 274.679 680.098C273.9 680.011 272.949 679.838 271.824 679.752C269.487 679.406 266.199 678.973 262.565 678.454C258.931 677.848 255.73 677.329 253.307 676.896C252.182 676.723 251.23 676.55 250.538 676.377C250.279 676.291 250.019 676.291 249.76 676.291C249.586 676.204 249.5 676.204 249.5 676.204Z" fill="black"/>
<path d="M270.266 679.838C270.353 679.838 270.439 679.233 270.958 678.54C271.478 677.935 272.083 677.675 272.083 677.589C272.083 677.502 271.391 677.762 270.785 678.367C270.266 679.146 270.18 679.838 270.266 679.838Z" fill="black"/>
<path d="M266.027 676.81C266.027 676.81 266.286 676.637 266.632 676.291C266.892 675.945 267.065 675.685 267.065 675.685C267.065 675.685 266.806 675.858 266.459 676.204C266.2 676.55 266.027 676.81 266.027 676.81Z" fill="black"/>
<path d="M264.901 676.031C264.901 676.118 265.161 675.945 265.507 675.771C265.767 675.598 266.026 675.339 266.026 675.339C266.026 675.252 265.767 675.425 265.421 675.598C265.075 675.771 264.901 675.944 264.901 676.031Z" fill="black"/>
<path d="M264.296 674.387C264.296 674.474 264.642 674.56 265.075 674.647C265.507 674.733 265.854 674.733 265.854 674.647C265.854 674.56 265.507 674.474 265.075 674.387C264.729 674.387 264.383 674.387 264.296 674.387Z" fill="black"/>
<path d="M264.209 673.349C264.209 673.435 264.556 673.608 265.075 673.781C265.594 673.868 266.027 673.868 266.027 673.781C266.027 673.695 265.594 673.695 265.161 673.608C264.642 673.435 264.209 673.262 264.209 673.349Z" fill="black"/>
<path d="M266.805 675.598C266.805 675.598 267.152 675.685 267.757 675.771C268.103 675.771 268.449 675.771 268.882 675.685C269.055 675.685 269.315 675.598 269.488 675.512C269.574 675.425 269.747 675.425 269.747 675.252C269.834 675.079 269.747 674.906 269.661 674.82C268.796 674.214 267.757 674.56 267.325 674.993C267.065 675.252 266.979 675.425 266.892 675.598C266.805 675.771 266.805 675.858 266.805 675.858C266.805 675.858 266.892 675.512 267.411 675.079C267.671 674.906 267.93 674.733 268.363 674.647C268.709 674.56 269.228 674.647 269.574 674.906C269.747 675.079 269.661 675.252 269.401 675.339C269.228 675.425 268.969 675.425 268.796 675.512C268.363 675.598 268.017 675.598 267.757 675.598C267.152 675.598 266.805 675.512 266.805 675.598Z" fill="black"/>
<path d="M267.065 675.685C267.065 675.685 267.238 675.425 267.325 674.993C267.325 674.733 267.325 674.474 267.152 674.214C266.979 673.954 266.806 673.608 266.373 673.608C266.113 673.608 266.027 673.868 266.027 674.041C266.027 674.214 266.113 674.387 266.113 674.474C266.2 674.733 266.373 674.993 266.459 675.166C266.719 675.512 266.892 675.685 267.065 675.685C266.979 675.598 266.806 675.425 266.632 675.079C266.546 674.906 266.373 674.647 266.286 674.387C266.2 674.127 266.113 673.781 266.373 673.781C266.632 673.781 266.806 674.041 266.979 674.301C267.065 674.56 267.152 674.82 267.152 674.993C267.152 675.425 266.979 675.685 267.065 675.685Z" fill="black"/>
<path d="M250.452 672.051C250.452 672.051 250.885 672.051 251.577 672.31C252.269 672.483 253.134 672.916 253.913 673.695C254.605 674.474 255.038 675.425 255.124 676.118C255.297 676.81 255.211 677.242 255.211 677.242C255.211 677.242 255.211 677.156 255.297 676.896C255.297 676.723 255.297 676.377 255.297 676.031C255.211 675.339 254.865 674.301 254.086 673.522C253.307 672.657 252.355 672.224 251.663 672.137C251.317 672.051 250.971 672.051 250.798 672.051C250.625 672.051 250.452 672.051 250.452 672.051Z" fill="black"/>
<path d="M257.461 676.118C257.461 676.204 258.412 676.464 259.71 676.723C260.922 676.896 261.96 676.983 261.96 676.896C261.96 676.81 260.922 676.723 259.71 676.55C258.499 676.291 257.461 676.118 257.461 676.118Z" fill="black"/>
<path d="M254.432 675.685C254.345 675.685 254.518 675.945 254.518 676.118C254.605 676.377 254.605 676.55 254.692 676.55C254.778 676.55 254.778 676.291 254.692 676.031C254.692 675.771 254.518 675.598 254.432 675.685Z" fill="black"/>
<path d="M253.567 674.041C253.567 674.041 253.567 674.214 253.74 674.474C253.913 674.647 253.999 674.82 254.086 674.733C254.086 674.733 254.086 674.56 253.913 674.301C253.74 674.214 253.567 674.041 253.567 674.041Z" fill="black"/>
<path d="M252.009 673.176C252.009 673.262 252.182 673.262 252.442 673.349C252.701 673.435 252.788 673.608 252.875 673.608C252.961 673.608 252.788 673.349 252.528 673.176C252.269 673.089 252.009 673.089 252.009 673.176Z" fill="black"/>
<path d="M250.885 672.657C250.885 672.743 250.971 672.83 251.058 672.83C251.144 672.916 251.317 672.916 251.317 672.916C251.317 672.83 251.231 672.743 251.144 672.743C251.058 672.657 250.885 672.657 250.885 672.657Z" fill="black"/>
<path d="M331.959 675.685L332.565 682.088L333.516 682.001C337.843 681.742 355.408 680.444 358.176 679.319C361.291 678.021 347.793 676.464 347.793 676.464L347.447 673.781L331.959 675.685Z" fill="#7ECED9"/>
<g opacity="0.5">
<g opacity="0.5">
<g opacity="0.5">
<path opacity="0.5" d="M338.189 681.396C337.843 680.098 336.978 678.973 335.853 678.281C334.728 677.589 333.43 677.329 332.132 677.589L332.651 681.915L338.189 681.396Z" fill="white"/>
</g>
</g>
</g>
<g opacity="0.5">
<path opacity="0.5" d="M354.369 677.502C354.369 677.502 359.128 678.281 358.609 679.146C358.09 680.011 340.439 681.915 332.478 682.088V681.742L353.244 679.665C353.244 679.665 353.417 677.675 354.369 677.502Z" fill="white"/>
</g>
<path d="M332.305 681.828C332.305 681.828 332.391 681.828 332.564 681.828C332.824 681.828 333.084 681.828 333.343 681.828C334.122 681.742 335.074 681.742 336.199 681.655C338.621 681.482 341.909 681.223 345.543 680.79C349.177 680.357 352.465 679.925 354.802 679.579C355.926 679.406 356.878 679.233 357.57 679.146C357.83 679.059 358.09 679.059 358.349 678.973C358.522 678.973 358.609 678.886 358.609 678.886C358.609 678.886 358.522 678.886 358.349 678.886C358.09 678.886 357.83 678.973 357.57 678.973C356.792 679.059 355.84 679.233 354.715 679.319C352.379 679.665 349.091 680.011 345.457 680.444C341.823 680.877 338.535 681.136 336.112 681.396C334.987 681.482 334.035 681.569 333.257 681.655C332.997 681.655 332.737 681.742 332.478 681.742C332.391 681.742 332.305 681.742 332.305 681.828Z" fill="black"/>
<path d="M353.245 679.925C353.331 679.925 353.245 679.233 353.591 678.54C353.937 677.848 354.456 677.415 354.456 677.329C354.456 677.242 353.85 677.675 353.418 678.454C353.072 679.233 353.158 679.925 353.245 679.925Z" fill="black"/>
<path d="M348.399 678.108C348.485 678.108 348.658 677.848 348.831 677.415C349.005 677.069 349.091 676.723 349.091 676.723C349.005 676.723 348.832 676.983 348.658 677.415C348.485 677.762 348.312 678.021 348.399 678.108Z" fill="black"/>
<path d="M347.101 677.589C347.101 677.589 347.36 677.415 347.62 677.156C347.88 676.896 348.053 676.637 347.966 676.637C347.966 676.637 347.707 676.81 347.447 677.069C347.187 677.242 347.014 677.502 347.101 677.589Z" fill="black"/>
<path d="M346.149 676.204C346.149 676.291 346.495 676.291 346.928 676.204C347.36 676.118 347.707 676.118 347.707 676.031C347.707 675.944 347.36 675.944 346.928 676.031C346.495 676.031 346.149 676.118 346.149 676.204Z" fill="black"/>
<path d="M345.716 675.166C345.716 675.252 346.149 675.339 346.668 675.339C347.187 675.339 347.62 675.166 347.62 675.079C347.62 674.993 347.187 675.079 346.668 675.079C346.149 675.166 345.716 675.166 345.716 675.166Z" fill="black"/>
<path d="M348.745 676.637C348.745 676.637 349.091 676.637 349.783 676.55C350.043 676.464 350.476 676.377 350.822 676.204C350.995 676.118 351.168 676.031 351.427 675.858C351.514 675.771 351.6 675.685 351.6 675.512C351.6 675.339 351.514 675.166 351.427 675.166C350.389 674.82 349.524 675.425 349.264 675.945C349.091 676.204 349.005 676.464 349.005 676.637C349.005 676.81 349.005 676.896 349.005 676.896C349.005 676.896 349.005 676.464 349.351 676.031C349.524 675.771 349.783 675.512 350.129 675.425C350.476 675.252 350.995 675.166 351.341 675.339C351.514 675.425 351.514 675.598 351.341 675.771C351.168 675.858 350.995 675.945 350.822 676.031C350.476 676.204 350.129 676.291 349.783 676.377C349.178 676.637 348.745 676.637 348.745 676.637Z" fill="black"/>
<path d="M349.004 676.723C349.004 676.723 349.178 676.464 349.004 676.031C348.918 675.771 348.831 675.598 348.658 675.339C348.485 675.166 348.226 674.82 347.793 674.906C347.534 674.993 347.447 675.252 347.534 675.425C347.534 675.598 347.707 675.771 347.793 675.858C347.966 676.118 348.139 676.291 348.312 676.377C348.658 676.637 348.918 676.723 349.004 676.723C348.918 676.723 348.658 676.55 348.399 676.291C348.226 676.118 348.053 675.945 347.88 675.771C347.707 675.598 347.62 675.166 347.793 675.166C348.053 675.079 348.312 675.339 348.485 675.512C348.658 675.685 348.745 675.945 348.831 676.118C349.091 676.377 349.004 676.723 349.004 676.723Z" fill="black"/>
<path d="M332.132 677.502C332.132 677.502 332.565 677.415 333.257 677.415C333.949 677.415 334.988 677.589 335.853 678.194C336.805 678.8 337.324 679.579 337.67 680.271C338.016 680.877 338.016 681.396 338.102 681.309C338.102 681.309 338.102 681.223 338.102 680.963C338.102 680.79 338.016 680.444 337.843 680.184C337.583 679.492 336.978 678.627 336.026 678.021C335.074 677.415 334.036 677.242 333.344 677.329C332.997 677.329 332.651 677.415 332.478 677.415C332.219 677.415 332.132 677.502 332.132 677.502Z" fill="black"/>
<path d="M339.92 679.665C339.92 679.752 340.958 679.752 342.169 679.665C343.467 679.579 344.419 679.319 344.419 679.233C344.419 679.146 343.381 679.319 342.169 679.492C340.958 679.579 339.92 679.579 339.92 679.665Z" fill="black"/>
<path d="M336.891 680.011C336.891 680.011 336.977 680.184 337.15 680.444C337.324 680.703 337.323 680.877 337.41 680.877C337.497 680.877 337.497 680.617 337.323 680.357C337.15 680.011 336.891 679.925 336.891 680.011Z" fill="black"/>
<path d="M335.593 678.713C335.593 678.713 335.679 678.886 335.852 679.059C336.026 679.233 336.199 679.319 336.199 679.233C336.199 679.233 336.112 679.059 335.939 678.886C335.766 678.713 335.593 678.627 335.593 678.713Z" fill="black"/>
<path d="M333.863 678.194C333.863 678.281 334.122 678.194 334.295 678.281C334.555 678.367 334.728 678.454 334.728 678.367C334.728 678.367 334.642 678.108 334.295 678.021C334.122 678.021 333.863 678.194 333.863 678.194Z" fill="black"/>
<path d="M332.651 678.021C332.651 678.108 332.737 678.108 332.91 678.194C333.084 678.194 333.17 678.194 333.17 678.194C333.17 678.108 333.084 678.108 332.91 678.021C332.824 677.935 332.737 677.935 332.651 678.021Z" fill="black"/>
<path d="M336.459 431.595C335.247 424.932 327.893 421.298 325.037 415.155C323.912 412.819 323.566 410.136 322.268 407.8C319.673 402.868 313.01 400.445 307.819 402.522L307.386 403.214C310.328 409.444 313.27 413.684 316.212 419.914C317.25 422.077 318.288 424.327 318.548 426.749C318.807 429.172 318.202 431.768 316.298 433.325C314.827 434.537 312.751 434.883 311.193 436.008C308.77 437.652 307.646 440.853 307.905 443.709C308.251 446.65 309.809 449.333 311.712 451.496C313.616 453.572 316.644 455.39 319.153 454.092C320.451 453.399 321.23 452.188 322.182 451.063C324.085 448.814 326.768 447.429 329.104 445.699C333.776 442.411 337.497 437.133 336.459 431.595Z" fill="black"/>
<path d="M400.142 462.312C398.498 463.782 389.412 471.397 389.412 471.397L380.414 463.263C380.673 462.571 382.836 458.85 383.096 457.899C383.356 457.12 383.356 456.255 383.356 455.389C383.269 454.351 383.096 453.053 382.836 452.275C382.404 451.409 383.356 450.457 384.048 450.89C384.827 451.323 385.951 453.745 385.951 456.86C385.951 459.975 398.065 452.88 399.796 454.611L400.142 462.312Z" fill="#FFBE9D"/>
<path d="M322.96 450.111L352.725 485.76L380.068 461.014L392.008 472.608C392.008 472.608 357.657 510.334 352.466 510.074C347.274 509.814 329.45 498.047 329.45 498.047L322.96 450.111Z" fill="#7ECED9"/>
<path d="M390.537 444.833C390.278 444.747 390.018 444.833 389.931 445.093L381.884 465.513C381.711 465.859 381.884 466.292 382.231 466.465L391.835 471.051C392.268 471.224 392.7 471.051 392.873 470.618L401.959 449.506C402.132 449.073 401.959 448.64 401.526 448.467L390.537 444.833Z" fill="black"/>
<path d="M390.278 446.304L382.836 464.561L392.873 469.061L400.488 449.765L390.278 446.304Z" fill="#F5F5F5"/>
<path d="M387.335 477.973C387.335 478.059 386.47 477.454 385.259 476.502C383.961 475.55 382.317 474.079 380.586 472.349C378.856 470.618 377.385 468.974 376.347 467.763C375.308 466.551 374.789 465.686 374.789 465.686C374.876 465.686 375.481 466.378 376.606 467.59C377.644 468.801 379.202 470.358 380.932 472.089C382.663 473.819 384.307 475.29 385.518 476.329C386.643 477.281 387.422 477.973 387.335 477.973Z" fill="black"/>
<path d="M378.856 464.561C378.943 464.648 378.51 464.907 378.597 465.513C378.597 465.773 378.77 466.205 379.029 466.378C379.289 466.638 379.808 466.638 380.154 466.378C380.5 466.119 380.76 465.773 380.76 465.426C380.76 465.08 380.5 464.734 380.241 464.561C379.721 464.215 379.289 464.388 379.289 464.302C379.289 464.302 379.375 464.215 379.548 464.129C379.721 464.042 380.067 464.129 380.414 464.302C380.76 464.475 381.106 464.821 381.192 465.34C381.279 465.859 380.933 466.465 380.414 466.811C379.894 467.07 379.202 467.07 378.77 466.724C378.337 466.378 378.25 465.859 378.25 465.513C378.25 465.167 378.423 464.821 378.597 464.734C378.683 464.561 378.77 464.561 378.856 464.561Z" fill="black"/>
<path d="M351.6 496.143C351.514 496.143 351.341 495.538 351.168 494.586C350.995 493.634 350.908 492.25 351.081 490.692C351.254 489.221 351.687 487.837 352.033 486.971C352.379 486.02 352.725 485.501 352.812 485.587C352.985 485.674 351.86 487.837 351.514 490.779C351.168 493.807 351.687 496.143 351.6 496.143Z" fill="black"/>
<path d="M355.84 495.884C355.754 495.884 355.408 495.451 354.888 494.586C354.369 493.72 353.764 492.423 353.331 490.952C352.898 489.481 352.725 488.01 352.725 487.058C352.725 486.02 352.812 485.414 352.812 485.414C352.985 485.414 352.898 487.923 353.764 490.865C354.542 493.72 355.927 495.884 355.84 495.884Z" fill="black"/>
<path d="M390.451 449.679L385.519 461.965L392.873 464.994L398.065 452.448L390.451 449.679Z" fill="#EBEBEB"/>
<path d="M391.922 463.177L387.596 461.36C387.249 461.187 387.163 460.841 387.249 460.494L387.336 460.321C387.509 459.975 387.855 459.889 388.201 459.975L392.528 461.792C392.874 461.965 392.96 462.312 392.874 462.658L392.787 462.831C392.614 463.177 392.268 463.263 391.922 463.177Z" fill="#7ECED9"/>
<path d="M396.402 453.749L390.976 451.706L390.671 452.516L396.097 454.559L396.402 453.749Z" fill="#455A64"/>
<path d="M395.719 456.595L389.645 454.308L389.066 455.846L395.139 458.133L395.719 456.595Z" fill="#E0E0E0"/>
<path d="M394.765 459.12L388.692 456.833L388.112 458.372L394.186 460.659L394.765 459.12Z" fill="#E0E0E0"/>
<path d="M399.795 454.611C398.411 454.87 396.68 454.957 395.296 455.216C394.863 455.303 394.517 455.389 394.171 455.562C393.825 455.822 393.652 456.255 393.825 456.601C394.085 457.033 394.604 457.033 395.036 457.033C396.075 457.033 397.113 456.947 398.065 456.947C396.767 457.033 395.469 457.206 394.171 457.553C393.565 457.726 392.96 458.158 392.96 458.764C392.96 459.283 393.479 459.716 393.998 459.802C394.517 459.889 395.642 459.802 395.642 459.802C395.642 459.802 397.719 459.802 397.805 460.148C396.507 460.148 394.777 460.408 393.479 460.581C393.133 460.581 392.96 461.1 392.873 461.446C392.787 461.792 392.96 462.225 393.219 462.398C393.392 462.485 393.565 462.485 393.738 462.485C395.469 462.398 397.113 462.398 398.843 462.312" fill="#FFBE9D"/>
<path d="M312.404 448.035C312.404 448.035 318.634 447.343 322.96 450.198C326.854 452.794 340.611 492.163 340.092 503.931C339.573 515.612 341.044 536.291 343.467 544.771C345.889 553.251 347.707 626.971 328.757 662.1L293.541 657.168L304.53 562.509L303.405 476.588L312.404 448.035Z" fill="#7ECED9"/>
<g opacity="0.3">
<path opacity="0.3" d="M310.414 448.035C310.414 448.035 316.643 447.343 320.97 450.198C324.863 452.794 338.621 492.163 338.102 503.931C337.583 515.612 339.054 536.291 341.476 544.771C343.899 553.251 345.716 626.971 326.767 662.1L294.579 657.168L302.54 562.509L301.328 476.502L310.414 448.035Z" fill="black"/>
</g>
<path d="M297.435 446.218C297.435 446.218 278.053 444.141 283.245 471.83L288.264 500.989L319.932 520.111C324.172 521.236 320.538 500.21 327.027 490.433C329.45 486.799 329.623 484.03 329.45 482.386C330.056 476.069 324.951 472.089 324.258 465.6C323.48 456.255 323.48 451.15 319.413 450.111L297.435 446.218Z" fill="#455A64"/>
<path d="M324.518 463.523C324.604 463.523 323.912 465.08 324.518 467.59C324.777 468.801 325.383 470.272 326.248 471.743C327.027 473.214 328.065 474.858 328.757 476.762C330.142 480.569 329.709 484.376 328.931 486.799C328.498 488.01 328.065 488.962 327.719 489.654C327.373 490.26 327.113 490.606 327.113 490.606C327.027 490.519 327.979 489.221 328.671 486.799C329.363 484.376 329.709 480.655 328.411 477.021C327.806 475.204 326.767 473.56 325.989 472.089C325.21 470.618 324.604 469.147 324.345 467.849C324.085 466.551 324.172 465.513 324.258 464.734C324.345 464.388 324.431 464.129 324.518 463.956C324.518 463.61 324.518 463.523 324.518 463.523Z" fill="black"/>
<path d="M314.827 448.208C314.395 443.449 313.962 438.43 313.962 438.43C313.962 438.43 320.019 436.786 320.452 428.653C320.884 420.866 318.548 407.368 318.548 407.368V406.675C309.376 403.907 298.474 404.08 292.85 411.78L297.176 450.458C297.695 454.957 301.935 458.072 306.78 457.553C311.712 456.947 315.26 452.794 314.827 448.208Z" fill="#FFBE9D"/>
<path d="M318.634 417.145C318.721 417.664 318.288 418.183 317.769 418.27C317.163 418.356 316.731 418.01 316.644 417.405C316.558 416.885 316.99 416.366 317.51 416.28C318.029 416.28 318.548 416.626 318.634 417.145Z" fill="black"/>
<path d="M318.634 416.02C318.548 416.193 317.683 415.674 316.558 415.761C315.433 415.847 314.654 416.539 314.568 416.366C314.481 416.28 314.568 416.02 314.914 415.761C315.26 415.501 315.779 415.155 316.471 415.068C317.163 414.982 317.769 415.241 318.115 415.414C318.548 415.761 318.634 416.02 318.634 416.02Z" fill="black"/>
<path d="M307.126 418.703C307.213 419.222 306.78 419.741 306.261 419.827C305.656 419.914 305.223 419.568 305.136 418.962C305.05 418.443 305.482 417.924 306.002 417.837C306.521 417.751 307.04 418.097 307.126 418.703Z" fill="black"/>
<path d="M307.126 417.578C307.04 417.751 306.174 417.232 305.05 417.318C303.925 417.405 303.146 418.097 303.06 417.924C302.973 417.837 303.06 417.578 303.406 417.318C303.752 417.059 304.271 416.712 304.963 416.626C305.655 416.539 306.261 416.799 306.607 416.972C307.04 417.318 307.126 417.491 307.126 417.578Z" fill="black"/>
<path d="M311.972 425.365C311.972 425.278 312.664 425.105 313.702 424.846C313.962 424.759 314.221 424.673 314.308 424.5C314.394 424.327 314.221 423.981 314.048 423.721C313.702 423.029 313.356 422.337 313.01 421.644C311.539 418.703 310.501 416.28 310.587 416.193C310.674 416.107 311.972 418.443 313.443 421.385C313.789 422.077 314.135 422.769 314.481 423.461C314.654 423.808 314.827 424.154 314.741 424.586C314.654 424.846 314.481 425.019 314.308 425.019C314.135 425.105 313.962 425.105 313.875 425.105C312.664 425.365 311.972 425.452 311.972 425.365Z" fill="black"/>
<path d="M313.962 438.43C313.962 438.43 308.597 439.296 302.973 436.613C302.973 436.613 306.088 441.891 314.048 440.334L313.962 438.43Z" fill="#EB996E"/>
<path d="M311.712 428.134C311.28 427.615 310.501 427.442 309.895 427.528C309.462 427.615 308.943 427.874 308.684 428.307C308.424 428.739 308.424 429.259 308.684 429.605C309.03 430.037 309.636 430.037 310.155 429.864C310.674 429.691 311.106 429.259 311.453 428.913C311.539 428.826 311.712 428.653 311.712 428.566C311.885 428.393 311.885 428.22 311.712 428.134Z" fill="#7ECED9"/>
<path d="M308.77 426.49C308.943 426.49 309.03 427.701 310.155 428.393C311.28 429.172 312.491 428.913 312.578 429.086C312.578 429.172 312.318 429.345 311.799 429.432C311.28 429.518 310.501 429.432 309.809 428.913C309.116 428.48 308.77 427.788 308.684 427.269C308.597 426.836 308.684 426.49 308.77 426.49Z" fill="black"/>
<path d="M276.842 557.231L264.555 607.849C264.555 607.849 249.932 668.503 249.413 670.147L248.981 672.051L269.66 673.608L305.396 561.038L276.842 557.231Z" fill="#FF8686"/>
<path d="M314.048 592.793C317.422 608.973 329.623 676.723 329.623 676.723L350.562 674.56L338.621 588.121C338.448 585.871 338.016 583.621 337.237 581.458L317.769 522.793L280.908 499.345C280.562 499.345 274.938 514.487 275.717 524.957C276.063 529.629 277.793 534.128 280.389 538.022C282.725 541.483 286.013 546.242 286.706 547.28C287.917 549.097 314.048 592.793 314.048 592.793Z" fill="#FF8686"/>
<path d="M272.17 519.678C271.131 523.313 270.353 527.033 269.66 530.754C267.324 544.338 261.354 577.391 257.46 586.13C252.528 597.206 244.568 638.998 246.99 646.699C249.413 654.4 302.973 662.1 302.973 662.1C302.973 662.1 306.088 612.002 309.116 599.369C312.231 586.736 318.634 559.048 319.586 542.781C320.538 526.514 320.192 498.22 315 480.655C309.808 463.09 297.781 444.747 297.781 444.747C297.781 444.747 287.485 447.602 284.024 451.669C284.024 451.669 279.784 456.947 279.697 461.879C279.611 466.898 277.361 490.606 275.804 504.363C275.198 508.257 273.467 515.006 272.17 519.678Z" fill="#7ECED9"/>
<path d="M319.586 541.916C319.586 541.916 319.586 541.829 319.586 541.656C319.586 541.483 319.586 541.223 319.5 540.964C319.5 540.272 319.413 539.32 319.327 538.108C319.153 535.686 319.067 532.138 318.288 527.812C317.942 525.649 317.336 523.312 316.385 520.89C315.433 518.467 314.048 516.131 312.231 513.881C310.414 511.631 308.338 509.382 306.348 506.959C305.309 505.748 304.358 504.45 303.406 503.065C302.54 501.681 301.762 500.21 301.156 498.566C299.945 495.451 299.599 491.903 300.637 488.875C301.156 487.318 302.108 486.02 302.887 484.808C303.233 484.203 303.579 483.51 303.752 482.818C303.838 482.472 303.838 482.126 303.838 481.78C303.752 481.434 303.665 481.088 303.492 480.828C303.146 480.222 302.54 479.876 301.848 479.703C301.243 479.444 300.55 479.271 299.858 479.011C299.166 478.752 298.647 478.232 298.214 477.627C297.782 477.021 297.608 476.329 297.522 475.723C297.349 474.425 297.435 473.127 297.608 471.916C297.782 470.705 297.955 469.58 298.128 468.541C298.733 464.215 299.252 460.668 299.685 458.245C299.858 457.033 300.031 456.082 300.118 455.476C300.204 455.216 300.204 454.957 300.204 454.784C300.204 454.611 300.291 454.524 300.291 454.524C300.291 454.524 300.291 454.611 300.291 454.784C300.291 454.957 300.204 455.216 300.204 455.476C300.118 456.168 300.031 457.12 299.858 458.245C299.512 460.754 299.079 464.215 298.474 468.541C298.301 469.666 298.214 470.791 298.041 471.916C297.868 473.127 297.782 474.339 297.955 475.55C298.041 476.156 298.214 476.761 298.56 477.281C298.906 477.8 299.426 478.232 300.031 478.492C300.637 478.752 301.329 478.925 302.021 479.184C302.714 479.444 303.406 479.79 303.838 480.482C304.098 480.828 304.184 481.174 304.271 481.607C304.271 482.04 304.271 482.386 304.184 482.818C304.011 483.597 303.665 484.289 303.233 484.895C302.454 486.193 301.502 487.404 300.983 488.962C299.945 491.903 300.377 495.278 301.502 498.393C302.627 501.508 304.617 504.19 306.607 506.613C308.597 509.036 310.76 511.285 312.491 513.535C314.308 515.785 315.692 518.294 316.644 520.717C317.596 523.139 318.115 525.476 318.461 527.725C319.153 532.052 319.24 535.686 319.327 538.108C319.327 539.32 319.327 540.272 319.413 540.964C319.413 541.223 319.413 541.483 319.413 541.743C319.673 541.829 319.586 541.916 319.586 541.916Z" fill="black"/>
<path d="M312.75 548.751C312.75 548.751 312.837 548.578 313.01 548.492C313.183 548.319 313.616 548.232 314.048 548.319C314.481 548.405 315.087 548.751 315.173 549.357C315.346 549.963 315.173 550.741 314.481 551.174C313.789 551.607 313.01 551.347 312.577 551.001C312.058 550.568 312.058 549.876 312.231 549.53C312.404 549.097 312.664 548.838 312.837 548.751C313.097 548.665 313.183 548.665 313.183 548.665C313.183 548.751 312.664 548.924 312.491 549.616C312.404 549.963 312.491 550.395 312.837 550.741C313.183 551.001 313.789 551.174 314.221 550.914C314.654 550.655 314.827 550.049 314.741 549.616C314.654 549.184 314.308 548.924 313.875 548.838C313.27 548.405 312.837 548.838 312.75 548.751Z" fill="black"/>
<path d="M307.04 578.603C307.04 578.603 307.126 578.43 307.299 578.343C307.472 578.17 307.905 578.083 308.338 578.17C308.77 578.257 309.376 578.603 309.462 579.208C309.635 579.814 309.462 580.593 308.77 581.025C308.078 581.458 307.299 581.198 306.867 580.852C306.348 580.42 306.347 579.727 306.521 579.381C306.694 578.949 306.953 578.689 307.126 578.603C307.386 578.516 307.472 578.516 307.472 578.516C307.472 578.603 306.953 578.776 306.78 579.468C306.694 579.814 306.78 580.247 307.126 580.593C307.472 580.852 308.078 581.025 308.511 580.766C308.943 580.506 309.116 579.901 309.03 579.468C308.943 579.035 308.597 578.776 308.165 578.689C307.559 578.257 307.126 578.603 307.04 578.603Z" fill="black"/>
<path d="M306.867 541.31C306.867 541.31 306.867 541.396 306.867 541.57C306.867 541.743 306.78 542.089 306.78 542.435C306.694 543.214 306.607 544.338 306.434 545.723C306.088 548.578 305.569 552.645 304.877 557.663C304.531 560.173 304.012 562.941 303.406 565.883C303.06 567.354 302.8 568.825 302.194 570.383C302.108 570.556 302.021 570.729 301.935 570.988C301.848 571.161 301.675 571.334 301.502 571.508C301.156 571.767 300.81 572.027 300.464 572.2C299.685 572.546 298.906 572.805 298.041 573.065C294.753 573.844 291.206 574.103 287.485 574.276C283.851 574.363 280.044 574.449 276.15 574.103C275.977 574.103 275.804 574.103 275.631 574.017C275.371 574.017 275.198 573.757 275.112 573.671C274.939 573.325 274.852 572.978 274.852 572.719C274.766 572.113 274.766 571.421 274.766 570.815C274.766 569.604 274.939 568.306 275.025 567.181C275.285 564.759 275.717 562.422 276.064 560.173C276.842 555.587 277.708 551.347 278.573 547.453V547.28H278.746C287.312 546.502 294.321 545.031 299.253 543.733C301.675 543.127 303.579 542.521 304.877 542.089C305.482 541.916 306.002 541.743 306.348 541.656C306.694 541.31 306.867 541.223 306.867 541.31C306.867 541.31 306.78 541.31 306.694 541.396C306.607 541.396 306.434 541.483 306.348 541.57C306.002 541.656 305.569 541.829 304.877 542.089C303.579 542.521 301.675 543.127 299.253 543.819C294.407 545.204 287.312 546.761 278.746 547.54L278.919 547.367C278.054 551.26 277.275 555.587 276.496 560.086C276.15 562.336 275.717 564.672 275.458 567.095C275.285 568.306 275.198 569.517 275.198 570.729C275.198 571.334 275.198 571.94 275.285 572.546C275.285 572.805 275.371 573.152 275.458 573.325C275.544 573.411 275.544 573.498 275.631 573.498C275.804 573.498 275.891 573.498 276.064 573.584C279.871 573.844 283.678 573.844 287.398 573.757C291.033 573.584 294.58 573.325 297.868 572.632C298.647 572.459 299.426 572.2 300.204 571.854C300.897 571.508 301.589 571.075 301.762 570.296C302.368 568.825 302.714 567.354 302.973 565.883C303.579 562.941 304.098 560.259 304.444 557.663C305.223 552.645 305.829 548.578 306.175 545.723C306.348 544.338 306.521 543.214 306.607 542.435C306.694 542.089 306.694 541.829 306.694 541.57C306.867 541.396 306.867 541.31 306.867 541.31Z" fill="black"/>
<path d="M306.348 547.54C306.348 547.54 306.002 547.713 305.309 548.059C304.617 548.405 303.665 548.838 302.368 549.27C299.858 550.222 296.311 551.26 292.244 551.953C288.177 552.645 284.457 552.731 281.861 552.645C280.563 552.645 279.438 552.558 278.659 552.472C277.881 552.385 277.535 552.299 277.535 552.299C277.535 552.299 277.967 552.299 278.659 552.299C279.438 552.299 280.476 552.385 281.774 552.385C284.457 552.385 288.091 552.212 292.071 551.52C296.051 550.828 299.599 549.876 302.108 549.011C303.406 548.578 304.358 548.232 305.05 547.972C305.915 547.713 306.348 547.54 306.348 547.54Z" fill="black"/>
<path d="M257.806 523.139C257.806 523.139 257.806 522.966 257.893 522.707C257.98 522.447 258.066 522.015 258.153 521.495C258.412 520.457 258.758 518.9 259.191 516.91C260.143 512.929 261.614 507.305 263.431 500.297C264.382 496.749 265.421 492.942 266.546 488.875C267.67 484.722 268.882 480.396 270.266 475.723C271.737 471.137 273.381 466.378 275.631 461.619C276.756 459.283 278.054 456.947 279.438 454.611C280.13 453.486 280.909 452.275 281.861 451.236C282.726 450.198 283.851 449.246 285.149 448.64C286.447 448.035 288.004 447.862 289.302 448.294C290.686 448.727 291.811 449.679 292.676 450.717C294.407 452.967 294.84 455.736 295.099 458.331C295.532 463.523 295.964 468.541 296.397 473.3C297.176 482.818 297.955 491.471 298.56 498.739C299.166 505.921 299.599 511.805 299.945 515.871C300.118 517.861 300.204 519.419 300.291 520.544C300.291 521.063 300.377 521.495 300.377 521.755C300.377 522.015 300.377 522.188 300.377 522.188C300.377 522.188 300.377 522.015 300.291 521.755C300.291 521.495 300.204 521.063 300.204 520.544C300.118 519.419 299.945 517.861 299.772 515.871C299.426 511.805 298.906 506.007 298.214 498.739C297.608 491.471 296.83 482.905 295.964 473.3C295.532 468.541 295.099 463.523 294.667 458.331C294.407 455.736 293.974 453.053 292.33 450.977C291.552 449.938 290.427 449.073 289.215 448.64C288.004 448.208 286.533 448.381 285.408 448.9C284.197 449.506 283.159 450.371 282.293 451.409C281.428 452.448 280.649 453.572 279.957 454.697C278.486 456.947 277.275 459.283 276.15 461.619C273.9 466.292 272.256 471.051 270.785 475.637C269.401 480.223 268.19 484.635 267.065 488.702C265.94 492.855 264.902 496.662 263.95 500.124C262.046 507.132 260.575 512.843 259.537 516.737C259.018 518.727 258.672 520.198 258.412 521.236C258.239 521.755 258.153 522.101 258.066 522.447C257.806 523.053 257.806 523.139 257.806 523.139Z" fill="#455A64"/>
<path d="M255.643 520.198C255.297 521.582 248.98 557.317 248.98 557.317L295.791 558.875L302.194 521.755L255.643 520.198Z" fill="#FF8686"/>
<path d="M301.761 522.447C301.761 522.447 301.588 522.534 301.329 522.793C301.069 522.966 300.636 523.313 300.031 523.659C298.906 524.351 297.262 525.389 295.272 526.514C293.195 527.639 290.773 529.023 287.917 530.321C286.533 531.013 285.062 531.706 283.418 532.225C281.774 532.744 280.043 533.004 278.226 533.004C274.592 532.917 271.218 531.792 268.449 530.494C265.593 529.11 263.344 527.466 261.527 525.995C259.71 524.524 258.325 523.226 257.373 522.274C256.941 521.842 256.508 521.496 256.335 521.236C256.076 520.976 255.989 520.89 255.989 520.803C255.989 520.803 256.162 520.89 256.422 521.149C256.681 521.409 257.114 521.755 257.546 522.188C258.498 523.053 259.969 524.351 261.786 525.735C263.603 527.206 265.94 528.764 268.708 530.148C271.477 531.446 274.765 532.571 278.313 532.571C280.043 532.571 281.774 532.311 283.418 531.879C284.975 531.36 286.446 530.581 287.831 529.975C290.599 528.677 293.109 527.379 295.185 526.254C297.262 525.13 298.906 524.178 300.031 523.486C300.55 523.14 300.983 522.88 301.329 522.707C301.588 522.447 301.761 522.361 301.761 522.447Z" fill="#455A64"/>
<path d="M298.906 524.005C298.992 524.005 297.781 531.792 296.137 541.397C294.493 551.001 293.022 558.788 292.849 558.702C292.762 558.702 293.974 550.914 295.618 541.31C297.348 531.792 298.819 524.005 298.906 524.005Z" fill="#455A64"/>
<path d="M276.929 531.533C276.842 532.657 276.669 533.869 276.582 534.994C276.582 535.34 276.496 535.772 276.582 536.118C276.669 536.465 276.929 536.811 277.275 536.897C277.707 536.984 278.14 536.724 278.313 536.291C278.486 535.945 278.573 535.426 278.573 535.08C278.659 533.869 278.746 532.571 278.746 531.359C278.226 531.359 277.707 531.359 277.188 531.359" fill="#455A64"/>
<path d="M286.533 449.333C290.34 448.035 293.541 452.967 293.974 456.947C294.32 460.062 294.58 464.561 294.234 470.791C293.541 484.462 287.398 497.441 287.398 497.441L326.508 503.325L325.037 518.381L275.544 513.102C268.189 512.324 263.43 505.056 265.593 497.96C270.006 483.597 277.274 462.831 278.832 459.37C281.082 454.784 281.341 451.15 286.533 449.333Z" fill="#7ECED9"/>
<path d="M273.727 512.756C273.727 512.756 273.813 512.756 273.987 512.756C274.16 512.756 274.419 512.843 274.765 512.843C275.457 512.929 276.409 513.102 277.621 513.276C280.13 513.622 283.764 514.141 288.35 514.66C297.522 515.785 310.327 516.996 325.123 518.121L324.864 518.294C325.296 513.535 325.816 508.43 326.335 503.239L326.508 503.498C311.798 501.248 298.214 499.258 287.398 497.614H287.225L287.312 497.441C289.821 489.567 291.811 483.078 292.936 478.492C293.541 476.242 293.888 474.425 294.147 473.214C294.234 472.608 294.407 472.176 294.407 471.83C294.493 471.483 294.493 471.31 294.493 471.31C294.493 471.31 294.493 471.483 294.407 471.83C294.32 472.176 294.32 472.608 294.147 473.214C293.888 474.425 293.541 476.242 293.022 478.579C291.897 483.164 289.994 489.74 287.485 497.614L287.312 497.355C298.127 498.999 311.712 500.989 326.508 503.152H326.681V503.325C326.162 508.517 325.729 513.535 325.21 518.381V518.554H325.037C310.241 517.429 297.435 516.044 288.263 514.92C283.677 514.314 280.043 513.795 277.534 513.362C276.323 513.189 275.371 513.016 274.679 512.843C274.333 512.756 274.16 512.756 273.9 512.67C273.813 512.756 273.727 512.756 273.727 512.756Z" fill="black"/>
<path d="M317.336 517.775C317.249 517.775 317.422 514.227 317.855 509.988C318.288 505.661 318.72 502.2 318.807 502.2C318.893 502.2 318.72 505.748 318.288 509.988C317.941 514.314 317.509 517.775 317.336 517.775Z" fill="black"/>
<path d="M322.355 504.796C322.355 504.796 322.441 504.709 322.614 504.796C322.787 504.796 323.047 504.969 323.306 505.229C323.479 505.488 323.652 506.007 323.393 506.44C323.133 506.873 322.614 507.219 322.008 507.046C321.403 506.959 321.057 506.44 320.97 505.921C320.884 505.402 321.143 504.969 321.403 504.796C321.922 504.363 322.441 504.45 322.441 504.536C322.441 504.623 322.008 504.623 321.662 505.056C321.489 505.229 321.316 505.575 321.403 505.921C321.489 506.267 321.749 506.613 322.095 506.7C322.441 506.786 322.874 506.526 323.047 506.267C323.22 506.007 323.22 505.661 323.047 505.402C322.787 504.882 322.355 504.796 322.355 504.796Z" fill="black"/>
<path d="M334.901 498.999L336.718 517.515H345.803L347.967 498.999H334.901Z" fill="#EBEBEB"/>
<path d="M334.901 496.576C334.901 496.576 334.122 497.355 334.036 498.999H348.745C348.745 498.999 349.005 497.528 347.88 496.576H334.901Z" fill="#455A64"/>
<path d="M336.632 494.846L336.112 496.663L347.188 496.749L346.496 494.846H336.632Z" fill="#455A64"/>
<path d="M334.728 503.585C334.728 503.758 335.766 512.929 335.766 512.929H346.842L347.88 503.585H334.728Z" fill="#455A64"/>
<path d="M335.42 501.941L335.161 505.056L345.89 505.315C345.89 505.315 345.89 508.949 344.765 509.988C344.765 509.988 345.89 512.151 344.678 513.362C343.467 514.573 342.775 514.227 342.775 514.227C342.775 514.227 343.294 516.65 342.083 517.256C340.871 517.861 325.297 516.91 325.297 516.91L326.248 506.873L329.709 506.527C329.796 503.239 333.257 501.595 335.42 501.941Z" fill="#FFBE9D"/>
<path d="M321.922 407.454C321.316 405.724 320.105 404.08 318.547 403.128C317.423 402.522 316.125 402.263 314.913 402.349V402.089C313.788 400.013 311.452 399.58 309.116 399.926C306.78 400.359 304.444 402.089 302.28 403.214C299.425 404.772 296.656 406.502 293.974 408.233C291.724 409.704 289.388 411.175 287.831 413.338C286.187 415.674 285.494 418.616 286.014 421.385C286.533 424.413 288.436 427.528 287.311 430.384C286.533 432.287 284.716 433.498 283.418 435.142C281.514 437.738 281.341 441.545 283.245 444.141C284.543 445.872 286.446 446.823 288.177 448.035C290.946 449.852 293.455 452.188 296.483 453.659C299.512 455.13 303.319 455.649 306.088 453.746C308.943 451.842 309.895 447.862 309.376 444.487C308.856 441.113 307.212 437.911 305.915 434.796C304.184 430.643 302.973 426.317 302.367 421.817C302.107 420 301.934 418.097 302.8 416.539C303.578 415.155 304.963 414.203 306.261 413.251C309.289 411.002 311.798 408.06 313.702 404.772C314.221 406.329 315.432 407.8 316.644 408.925C318.374 410.569 320.364 411.953 322.441 413.078C322.614 411.088 322.528 409.185 321.922 407.454Z" fill="black"/>
<path d="M594.911 664.523C594.306 662.273 595.863 659.937 597.507 658.293C599.238 656.649 601.228 655.178 602.093 653.015C603.564 649.468 601.66 644.882 604.083 641.94C605.554 640.209 608.063 639.604 609.361 637.786C610.053 636.835 610.226 635.623 610.486 634.498C611.87 628.615 614.812 623.164 618.966 618.837C619.225 624.115 618.014 629.393 615.591 633.979C614.639 635.796 613.428 637.613 613.082 639.69C612.563 643.065 614.38 646.526 613.514 649.9C612.563 653.707 608.236 656.217 608.063 660.11C607.89 663.398 610.746 666.34 610.486 669.628C610.4 671.013 609.707 672.31 609.015 673.522C606.419 677.762 602.699 680.617 596.988 680.53L589.979 680.703L594.911 664.523Z" fill="#E0E0E0"/>
<g opacity="0.3">
<g opacity="0.3">
<path opacity="0.3" d="M594.911 664.523C594.306 662.273 595.863 659.937 597.507 658.293C599.238 656.649 601.228 655.178 602.093 653.015C603.564 649.468 601.66 644.882 604.083 641.94C605.554 640.209 608.063 639.604 609.361 637.786C610.053 636.835 610.226 635.623 610.486 634.498C611.87 628.615 614.812 623.164 618.966 618.837C619.225 624.115 618.014 629.393 615.591 633.979C614.639 635.796 613.428 637.613 613.082 639.69C612.563 643.065 614.38 646.526 613.514 649.9C612.563 653.707 608.236 656.217 608.063 660.11C607.89 663.398 610.746 666.34 610.486 669.628C610.4 671.013 609.707 672.31 609.015 673.522C606.419 677.762 602.699 680.617 596.988 680.53L589.979 680.703L594.911 664.523Z" fill="black"/>
</g>
</g>
<path d="M588.595 680.79C588.595 680.79 587.903 680.963 586.692 680.703C586.086 680.617 585.307 680.444 584.442 680.098C583.577 679.752 582.625 679.319 581.673 678.54C581.241 678.108 580.808 677.675 580.548 676.983C580.289 676.377 580.289 675.598 580.202 674.906C580.202 674.214 580.202 673.435 580.029 672.656C579.943 671.878 579.597 671.099 579.164 670.407C578.385 668.936 577.001 667.551 576.568 665.648C576.136 663.744 576.482 661.668 576.828 659.505C577.174 657.428 577.52 655.178 576.741 652.929C576.049 650.765 574.492 648.775 573.713 646.266C572.934 643.757 573.367 641.074 573.194 638.479C573.107 637.181 572.848 635.796 572.328 634.585C571.809 633.374 571.031 632.162 570.425 630.864C569.214 628.269 569.04 625.24 568.694 622.298C568.521 620.827 568.348 619.356 568.262 617.885C568.089 616.415 568.002 614.857 567.483 613.386C567.05 611.915 566.445 610.531 565.839 609.06C565.579 608.368 565.233 607.589 565.06 606.81C564.887 605.945 564.887 605.253 564.887 604.387C564.801 602.83 564.887 601.186 565.06 599.542C565.233 597.898 565.579 596.34 565.752 594.696C565.752 594.61 565.752 594.523 565.752 594.437V594.091L566.012 594.264C567.483 595.043 568.781 596.167 569.733 597.465C570.684 598.763 571.463 600.234 571.982 601.705C573.107 604.734 573.54 607.848 574.059 610.877C574.578 613.905 575.357 616.847 576.914 619.356C577.693 620.568 578.558 621.779 579.424 622.991C580.202 624.202 580.895 625.5 581.154 626.971C581.587 629.913 579.943 632.508 580.202 635.104C580.289 636.402 580.808 637.613 581.414 638.738C582.019 639.863 582.798 640.901 583.49 641.94C584.183 642.978 584.875 644.016 585.307 645.141C585.827 646.266 586.086 647.477 586.173 648.602C586.346 650.938 586 653.188 586.173 655.265C586.259 657.341 587.038 659.245 587.817 660.975C588.682 662.706 589.547 664.263 590.326 665.734C590.759 666.513 591.105 667.205 591.364 667.984C591.71 668.763 591.797 669.455 591.97 670.147C592.229 671.618 592.143 672.916 591.97 674.127C591.624 676.55 590.759 678.194 589.98 679.146C589.807 679.406 589.547 679.579 589.374 679.752C589.201 679.925 589.028 680.011 588.941 680.098C588.768 680.703 588.595 680.79 588.595 680.79C588.595 680.79 589.201 680.444 589.98 679.492C590.759 678.54 591.624 676.81 591.883 674.474C592.056 673.262 592.056 671.964 591.797 670.58C591.624 669.888 591.537 669.109 591.191 668.417C590.932 667.725 590.499 666.946 590.153 666.254C589.374 664.783 588.422 663.225 587.557 661.495C586.692 659.764 585.913 657.861 585.827 655.697C585.653 653.534 586 651.285 585.827 649.035C585.74 647.91 585.48 646.785 585.048 645.66C584.529 644.536 583.923 643.497 583.231 642.459C582.539 641.421 581.76 640.382 581.154 639.257C580.548 638.133 579.943 636.835 579.856 635.45C579.51 632.681 581.154 630.086 580.721 627.317C580.548 625.932 579.856 624.721 579.077 623.51C578.299 622.298 577.347 621.173 576.568 619.876C575.011 617.28 574.232 614.338 573.713 611.31C573.107 608.281 572.761 605.166 571.636 602.224C571.117 600.753 570.338 599.369 569.387 598.071C568.435 596.773 567.223 595.735 565.839 595.043L566.185 594.87C566.185 594.956 566.185 595.043 566.185 595.129C566.012 596.773 565.666 598.331 565.493 599.975C565.32 601.532 565.233 603.176 565.32 604.734C565.32 605.512 565.406 606.291 565.493 607.07C565.666 607.762 565.926 608.541 566.272 609.233C566.877 610.704 567.483 612.088 567.916 613.559C568.348 615.03 568.521 616.588 568.694 618.059C568.867 619.529 569.04 621.087 569.127 622.558C569.473 625.5 569.646 628.442 570.858 630.951C571.463 632.249 572.242 633.374 572.761 634.672C573.367 635.969 573.626 637.354 573.713 638.652C573.886 641.334 573.453 643.93 574.232 646.353C574.924 648.689 576.482 650.679 577.174 652.929C577.953 655.178 577.607 657.514 577.26 659.678C576.914 661.754 576.568 663.831 577.001 665.648C577.434 667.551 578.731 668.849 579.51 670.407C579.943 671.186 580.289 671.964 580.375 672.743C580.462 673.522 580.462 674.301 580.548 674.993C580.548 675.685 580.635 676.377 580.808 676.983C580.981 677.588 581.414 678.021 581.846 678.454C582.712 679.232 583.75 679.665 584.529 680.011C585.394 680.357 586.173 680.53 586.778 680.617C587.384 680.703 587.903 680.79 588.163 680.79C588.509 680.79 588.595 680.79 588.595 680.79Z" fill="#E0E0E0"/>
<path d="M567.05 598.59C567.05 598.59 567.05 598.677 567.137 598.763C567.137 598.936 567.223 599.109 567.31 599.369C567.483 599.888 567.57 600.753 567.829 601.792C568.089 602.83 568.694 603.955 569.214 605.426C569.733 606.897 570.338 608.541 570.858 610.358C571.377 612.261 571.809 614.251 572.329 616.501C572.848 618.751 573.28 621.087 574.492 623.337C575.097 624.461 575.703 625.586 576.222 626.884C576.741 628.182 577.001 629.48 577.174 630.864C577.52 633.633 577.953 636.402 578.645 639.344C580.029 645.055 581.327 650.506 582.452 655.438C583.663 660.37 584.788 664.869 585.654 668.59C586.519 672.31 587.298 675.339 587.817 677.502C588.076 678.54 588.249 679.319 588.336 679.925C588.422 680.184 588.422 680.357 588.509 680.53C588.509 680.703 588.509 680.79 588.509 680.79C588.509 680.79 588.509 680.703 588.422 680.617C588.336 680.444 588.336 680.271 588.249 680.011C588.076 679.406 587.903 678.627 587.644 677.589C587.124 675.425 586.346 672.483 585.394 668.763C584.442 665.042 583.317 660.543 582.106 655.611C580.895 650.679 579.597 645.228 578.212 639.517C577.607 636.662 577.087 633.806 576.741 631.037C576.568 629.653 576.309 628.355 575.79 627.144C575.27 625.932 574.665 624.808 574.146 623.596C572.934 621.347 572.415 618.837 571.982 616.674C571.55 614.424 571.117 612.434 570.598 610.531C570.079 608.714 569.56 606.983 569.041 605.599C568.521 604.128 567.916 603.003 567.656 601.878C567.397 600.84 567.31 599.975 567.223 599.455C567.223 599.196 567.137 599.023 567.137 598.85C567.05 598.677 567.05 598.59 567.05 598.59Z" fill="#E0E0E0"/>
<path d="M587.384 680.79C582.884 678.021 581.586 669.801 583.49 664.869C585.394 659.937 588.768 655.438 589.287 650.16C589.72 646.093 588.422 641.94 589.374 637.96C590.672 632.595 595.95 628.528 595.863 622.991C595.863 619.876 594.133 617.02 594.306 613.905C594.479 610.098 597.421 607.156 599.238 603.868C602.007 598.763 602.266 592.793 603.218 587.082C604.17 581.371 606.419 575.315 611.438 572.459C612.13 577.305 613.428 580.679 612.995 587.169C612.822 589.505 610.054 594.004 609.707 599.196C609.448 602.311 609.275 605.339 609.102 608.454C608.929 611.483 608.669 614.511 607.631 617.366C606.766 619.529 605.468 621.433 604.862 623.683C603.651 627.836 605.208 632.422 604.256 636.662C603.478 640.209 600.968 643.324 600.449 646.958C599.67 652.063 602.958 657.428 601.228 662.273C600.363 664.696 598.372 666.6 597.767 669.109C597.334 671.012 597.767 673.089 597.334 675.079C596.642 678.194 590.672 680.617 587.47 680.444" fill="#E0E0E0"/>
<path d="M610.227 577.391C610.227 577.391 610.227 577.478 610.227 577.651C610.227 577.824 610.14 578.083 610.14 578.43C610.054 579.122 609.881 580.16 609.708 581.458C609.448 582.756 608.756 584.313 608.15 586.13C607.544 587.947 606.939 590.024 606.42 592.36C605.9 594.696 605.468 597.292 604.949 600.061C604.429 602.83 603.997 605.858 602.526 608.714C601.92 610.185 601.141 611.656 600.622 613.127C600.103 614.684 599.757 616.328 599.67 618.059C599.411 621.52 598.978 625.067 598.286 628.615C596.815 635.796 595.517 642.632 594.219 648.862C592.921 655.092 591.71 660.629 590.758 665.302C589.72 669.974 588.941 673.781 588.336 676.377C588.076 677.675 587.816 678.713 587.643 679.406C587.557 679.752 587.47 680.011 587.47 680.184C587.384 680.357 587.384 680.444 587.384 680.444C587.384 680.444 587.384 680.357 587.384 680.184C587.384 680.011 587.47 679.752 587.557 679.406C587.73 678.713 587.903 677.675 588.163 676.377C588.682 673.695 589.46 669.888 590.412 665.215C591.364 660.543 592.489 654.919 593.787 648.689C594.998 642.459 596.383 635.623 597.767 628.442C598.459 624.808 598.892 621.347 599.151 617.885C599.324 616.155 599.584 614.424 600.19 612.867C600.795 611.309 601.488 609.839 602.093 608.368C603.478 605.512 603.997 602.57 604.516 599.802C605.035 597.033 605.468 594.437 605.987 592.101C606.506 589.764 607.112 587.688 607.804 585.871C608.41 584.054 609.102 582.583 609.361 581.285C609.621 579.987 609.794 578.949 609.881 578.257C609.967 577.91 609.967 577.651 610.054 577.478C610.14 577.478 610.227 577.391 610.227 577.391Z" fill="#263238"/>
<rect x="663" width="67" height="226" fill="#478FD1" fill-opacity="0.42"/>
<path d="M750 0H817V320H750V0Z" fill="#68E0C3" fill-opacity="0.6"/>
</svg>
